<svg
  xmlns="http://www.w3.org/2000/svg"
  viewBox="0 13.789999961853027 203.74000549316406 36.209999084472656"
  data-asc="0.98486328125"
  width="203.74000549316406"
  height="36.209999084472656"
>
  <defs />
  <g fill="#ea9dae">
    <g transform="translate(0, 0)">
      <path
        d="M7.01 21.24L7.01 35.25L14.01 35.25Q15.45 35.25 16.72 34.70Q17.99 34.16 18.95 33.20Q19.90 32.25 20.45 30.97Q21.00 29.69 21.00 28.25Q21.00 26.81 20.45 25.52Q19.90 24.24 18.95 23.29Q17.99 22.34 16.72 21.79Q15.45 21.24 14.01 21.24L7.01 21.24M7.01 49.24L0 49.24L0 14.23L14.01 14.23Q15.94 14.23 17.72 14.73Q19.51 15.23 21.06 16.15Q22.61 17.07 23.89 18.35Q25.17 19.63 26.09 21.19Q27.00 22.75 27.50 24.54Q28.00 26.32 28.00 28.25Q28.00 31.13 26.90 33.68Q25.81 36.23 23.90 38.13Q22.00 40.04 19.45 41.14Q16.89 42.24 14.01 42.24L7.01 42.24L7.01 49.24ZM66.41 31.88Q66.41 34.38 65.76 36.68Q65.11 38.99 63.94 41.00Q62.77 43.02 61.11 44.68Q59.45 46.34 57.45 47.52Q55.44 48.71 53.13 49.35Q50.81 50 48.32 50Q45.83 50 43.52 49.35Q41.21 48.71 39.20 47.52Q37.18 46.34 35.52 44.68Q33.86 43.02 32.68 41.00Q31.49 38.99 30.85 36.68Q30.20 34.38 30.20 31.88Q30.20 29.39 30.85 27.08Q31.49 24.76 32.68 22.75Q33.86 20.75 35.52 19.09Q37.18 17.43 39.20 16.26Q41.21 15.09 43.52 14.44Q45.83 13.79 48.32 13.79Q50.81 13.79 53.13 14.44Q55.44 15.09 57.45 16.26Q59.45 17.43 61.11 19.09Q62.77 20.75 63.94 22.75Q65.11 24.76 65.76 27.08Q66.41 29.39 66.41 31.88M59.45 31.88Q59.45 29.59 58.57 27.55Q57.69 25.51 56.19 24.01Q54.69 22.51 52.65 21.63Q50.61 20.75 48.32 20.75Q46.00 20.75 43.97 21.63Q41.94 22.51 40.43 24.01Q38.92 25.51 38.04 27.55Q37.16 29.59 37.16 31.88Q37.16 34.18 38.04 36.19Q38.92 38.21 40.43 39.72Q41.94 41.24 43.97 42.11Q46.00 42.99 48.32 42.99Q50.61 42.99 52.65 42.11Q54.69 41.24 56.19 39.72Q57.69 38.21 58.57 36.19Q59.45 34.18 59.45 31.88ZM95.00 49.24L71.00 49.24L71.00 14.23L95.00 14.23L95.00 21.24L78.00 21.24L78.00 28.25L89.50 28.25L89.50 35.25L78.00 35.25L78.00 42.24L95.00 42.24L95.00 49.24ZM138.40 49.24L113.89 49.24L113.89 14.23L120.90 14.23L120.90 42.24L138.40 42.24L138.40 49.24ZM162.65 35.25L162.65 28.25Q162.65 26.81 162.10 25.52Q161.55 24.24 160.60 23.29Q159.64 22.34 158.36 21.79Q157.08 21.24 155.64 21.24Q154.20 21.24 152.92 21.79Q151.64 22.34 150.68 23.29Q149.73 24.24 149.18 25.52Q148.63 26.81 148.63 28.25L148.63 35.25L162.65 35.25M169.65 49.24L162.65 49.24L162.65 42.24L148.63 42.24L148.63 49.24L141.65 49.24L141.65 28.25Q141.65 25.34 142.75 22.79Q143.85 20.24 145.74 18.33Q147.63 16.43 150.18 15.33Q152.73 14.23 155.64 14.23Q158.54 14.23 161.10 15.33Q163.65 16.43 165.55 18.33Q167.46 20.24 168.55 22.79Q169.65 25.34 169.65 28.25L169.65 49.24ZM203.74 38.75Q203.74 40.92 202.91 42.82Q202.08 44.73 200.65 46.15Q199.22 47.58 197.31 48.41Q195.41 49.24 193.24 49.24L175.73 49.24L175.73 14.23L193.24 14.23Q195.41 14.23 197.31 15.06Q199.22 15.89 200.65 17.32Q202.08 18.75 202.91 20.65Q203.74 22.56 203.74 24.73Q203.74 25.71 203.47 26.73Q203.20 27.76 202.71 28.71Q202.22 29.66 201.54 30.44Q200.85 31.23 200.02 31.74Q200.88 32.20 201.56 33.00Q202.25 33.79 202.73 34.74Q203.22 35.69 203.48 36.73Q203.74 37.77 203.74 38.75M182.74 42.24L193.24 42.24Q193.97 42.24 194.60 41.97Q195.24 41.70 195.72 41.22Q196.19 40.75 196.46 40.11Q196.73 39.48 196.73 38.75Q196.73 38.01 196.46 37.38Q196.19 36.74 195.72 36.27Q195.24 35.79 194.60 35.52Q193.97 35.25 193.24 35.25L182.74 35.25L182.74 42.24M182.74 28.25L193.24 28.25Q193.97 28.25 194.60 27.98Q195.24 27.71 195.72 27.23Q196.19 26.76 196.46 26.11Q196.73 25.46 196.73 24.73Q196.73 24.00 196.46 23.36Q196.19 22.73 195.72 22.25Q195.24 21.78 194.60 21.51Q193.97 21.24 193.24 21.24L182.74 21.24L182.74 28.25Z"
      />
    </g>
  </g>
</svg>
