<?xml version="1.0" encoding="UTF-8"?>
<svg version="1.1" xmlns="http://www.w3.org/2000/svg" width="774" height="322">
<path d="M0 0 C8.23526588 7.19059459 14.40423536 16.05047656 15.7421875 27.1484375 C15.96472426 37.77784041 13.31296992 44.26571939 5.99609375 51.9453125 C-2.6178443 60.0703125 -2.6178443 60.0703125 -7.62890625 60.0703125 C-7.15453125 61.1221875 -6.68015625 62.1740625 -6.19140625 63.2578125 C-2.21987981 72.06424069 -2.46346112 82.61816273 -5.60546875 91.640625 C-11.25824241 105.06056858 -21.03047563 113.6129923 -34.16015625 119.6640625 C-47.2910792 124.98740964 -61.01400503 126.21651391 -74.5546875 121.453125 C-83.77715625 117.30477184 -90.68912523 111.51480498 -94.62890625 102.0703125 C-102.39343597 77.48590294 -93.30635498 44.79259868 -89.56640625 19.8203125 C-89.44279724 18.97779938 -89.31918823 18.13528625 -89.1918335 17.26724243 C-88.83625144 14.86132979 -88.46723068 12.45787914 -88.09375 10.0546875 C-87.99067032 9.34884018 -87.88759064 8.64299286 -87.78138733 7.91575623 C-86.87123727 2.23473073 -85.50585858 -2.93241772 -81.49609375 -7.19921875 C-77.72617235 -9.47452554 -73.99812559 -10.53348289 -69.75390625 -11.6171875 C-68.97660156 -11.82923828 -68.19929687 -12.04128906 -67.3984375 -12.25976562 C-44.58644453 -18.33657384 -18.85486849 -14.73649454 0 0 Z M-57.62890625 17.0703125 C-58.61890625 24.9903125 -59.60890625 32.9103125 -60.62890625 41.0703125 C-43.84009031 41.77721001 -30.23691425 38.31191448 -15.62890625 30.0703125 C-15.97282595 27.31895488 -16.35077869 26.29922407 -18.52734375 24.5078125 C-30.34827454 17.64645204 -43.90446427 12.49549851 -57.62890625 17.0703125 Z M-64.62890625 71.0703125 C-64.99566939 73.25573582 -65.34673325 75.44379656 -65.69140625 77.6328125 C-65.88863281 78.85097656 -66.08585938 80.06914062 -66.2890625 81.32421875 C-66.63903835 85.18199847 -66.51862111 88.30183436 -65.62890625 92.0703125 C-61.33661665 94.9318389 -57.66791194 94.66915086 -52.62890625 94.0703125 C-46.31128608 92.11245577 -39.84159995 88.85402393 -35.69140625 83.6328125 C-34.46133718 81.12851576 -34.46133718 81.12851576 -34.62890625 78.4453125 C-35.98648756 75.22105688 -37.47927927 74.50196113 -40.62890625 73.0703125 C-45.48106615 71.7905208 -50.45386612 71.73468793 -55.44140625 71.5078125 C-56.32505859 71.46462891 -57.20871094 71.42144531 -58.11914062 71.37695312 C-60.28890248 71.27139714 -62.45888535 71.17040179 -64.62890625 71.0703125 Z " fill="#EE68C9" transform="translate(742.62890625,92.9296875)"/>
<path d="M0 0 C11.70809156 9.00472823 18.12569574 20.24681326 20.5625 34.75 C23.42050359 57.9683267 20.32991409 83.13574233 6.28271484 102.515625 C-3.41604174 114.67547214 -16.25752271 123.12659848 -31.4375 126.75 C-44.10753909 128.10424417 -55.1655229 126.8936503 -65.625 119.1875 C-78.03407222 108.55115238 -85.16081656 93.15266025 -87.125 77.0625 C-88.94832833 53.09332967 -86.27629336 27.2942712 -70.125 8.375 C-51.59329132 -10.84191471 -22.63084683 -14.73237222 0 0 Z M-48.4375 30.75 C-56.77672841 43.63335886 -58.18464245 60.53025527 -55.86328125 75.4375 C-54.00242992 84.10178131 -52.08798432 90.60063555 -44.4375 95.75 C-37.2943976 97.90640827 -31.68976616 95.37613308 -25.3125 92.1875 C-15.14381284 83.56622176 -11.14682199 71.62980633 -9.6875 58.76953125 C-8.88297052 48.28228317 -8.83261626 36.5389967 -15.625 28 C-20.70371928 23.93702458 -25.60815731 20.97787709 -32.359375 21.36328125 C-38.85153956 22.57140962 -44.35729807 25.53640864 -48.4375 30.75 Z " fill="#7B6DEF" transform="translate(218.4375,85.25)"/>
<path d="M0 0 C13.69310542 14.42109331 11.27911694 40.80426027 11.765625 59.21484375 C11.80882919 60.77316351 11.852245 62.33147742 11.89585876 63.88978577 C11.98596506 67.13277338 12.07399488 70.37580821 12.16040039 73.61889648 C12.27006586 77.73119918 12.38427461 81.84336004 12.49997807 85.95549679 C12.58994201 89.16691324 12.67780651 92.37838458 12.76504326 95.58987617 C12.80635295 97.10421819 12.84819882 98.6185457 12.89064217 100.13285637 C13.00646196 104.29211254 13.10655971 108.45120438 13.18642044 112.61130905 C13.23147563 114.67103025 13.29620427 116.72965058 13.36056519 118.78884888 C13.38902147 120.12426823 13.41657486 121.45970721 13.44311523 122.79516602 C13.4742894 123.9668483 13.50546356 125.13853058 13.5375824 126.34571838 C13.07002427 131.33818545 11.39155033 134.55099954 7.73046875 137.9375 C3.10264145 141.06128343 -1.35278741 141.25590195 -6.76953125 140.625 C-11.52301442 139.08683586 -14.56442759 136.35960832 -16.97338867 131.94116211 C-18.70794638 126.89493428 -18.16777299 121.45368956 -18.01953125 116.1875 C-17.93703125 112.041875 -17.85453125 107.89625 -17.76953125 103.625 C-31.62953125 103.13 -31.62953125 103.13 -45.76953125 102.625 C-46.16785156 104.73261719 -46.56617188 106.84023437 -46.9765625 109.01171875 C-47.37143327 111.06418402 -47.76966072 113.11597143 -48.16821289 115.16772461 C-48.44223467 116.58794956 -48.7127921 118.00884768 -48.97973633 119.43041992 C-49.36529044 121.48024674 -49.76346829 123.52728483 -50.1640625 125.57421875 C-50.39971924 126.80487061 -50.63537598 128.03552246 -50.87817383 129.3034668 C-52.04240417 133.6418272 -53.85324167 136.56554017 -56.76953125 139.9375 C-61.34459136 142.51097131 -65.64084744 142.37167603 -70.76953125 141.625 C-75.22099376 139.43973658 -77.9583827 136.6855479 -80.76953125 132.625 C-83.75031426 123.68265096 -80.10414944 111.97758898 -78.20703125 103 C-77.9445459 101.75307373 -77.68206055 100.50614746 -77.41162109 99.22143555 C-73.16040757 79.64685488 -67.75385264 60.57601782 -58.76953125 42.625 C-58.28250732 41.62871582 -58.28250732 41.62871582 -57.78564453 40.61230469 C-53.30918454 31.50786689 -48.14978787 23.54324692 -41.76953125 15.625 C-41.28097656 14.97144531 -40.79242187 14.31789063 -40.2890625 13.64453125 C-33.60859792 5.08334936 -24.18866912 -1.11700152 -13.89453125 -4.25 C-8.70076054 -4.45775083 -4.14504993 -3.22087765 0 0 Z M-20.76953125 39.625 C-25.39438088 45.20163027 -28.8563406 51.42510622 -32.08203125 57.875 C-32.41920166 58.54789063 -32.75637207 59.22078125 -33.10375977 59.9140625 C-35.01294984 63.81828145 -36.37164091 67.43132899 -37.76953125 71.625 C-31.49953125 71.955 -25.22953125 72.285 -18.76953125 72.625 C-19.09953125 61.735 -19.42953125 50.845 -19.76953125 39.625 C-20.09953125 39.625 -20.42953125 39.625 -20.76953125 39.625 Z " fill="#D569D1" transform="translate(614.76953125,90.375)"/>
<path d="M0 0 C0.73992187 0.57492188 1.47984375 1.14984375 2.2421875 1.7421875 C3.19738281 2.44988281 3.19738281 2.44988281 4.171875 3.171875 C13.50847366 10.51666594 19.1254644 20.98109182 20.62109375 32.71484375 C21.18376061 46.49110666 15.79402088 57.32827078 6.8671875 67.4296875 C6.0009375 68.1928125 5.1346875 68.9559375 4.2421875 69.7421875 C3.61957031 70.29519531 2.99695313 70.84820312 2.35546875 71.41796875 C-8.60911042 80.6108924 -21.38040094 84.11854497 -35.4453125 83.9296875 C-36.36892578 83.92904297 -37.29253906 83.92839844 -38.24414062 83.92773438 C-42.57260206 83.89968819 -46.51808148 83.68555235 -50.7578125 82.7421875 C-50.73497192 83.7772644 -50.73497192 83.7772644 -50.71166992 84.83325195 C-50.60937901 93.26912115 -51.22759546 101.54025067 -52.0703125 109.9296875 C-52.24723633 111.88165039 -52.24723633 111.88165039 -52.42773438 113.87304688 C-54.20737479 131.86110464 -54.20737479 131.86110464 -59.6328125 136.6796875 C-64.84520567 140.11986699 -68.44161535 141.29623988 -74.7578125 140.7421875 C-79.411926 139.00830208 -82.1117547 136.95627955 -84.7578125 132.7421875 C-85.76486878 128.37041493 -85.74043461 124.57848207 -85.29223633 120.13061523 C-85.16478531 118.82783127 -85.03733429 117.5250473 -84.90602112 116.18278503 C-84.759134 114.76376596 -84.61206986 113.3447652 -84.46484375 111.92578125 C-84.31667608 110.44202651 -84.16918311 108.95820425 -84.02232361 107.47431946 C-83.62911383 103.52266533 -83.22599442 99.57208447 -82.82035828 95.62168884 C-82.48718623 92.36785827 -82.15899325 89.11353366 -81.83083916 85.8591938 C-81.03072152 77.92468412 -80.22063205 69.99123338 -79.40484428 62.058321 C-78.85411452 56.6970838 -78.31482874 51.33477064 -77.78105164 45.97181702 C-77.43949523 42.55484254 -77.09009989 39.13872073 -76.73690796 35.72293091 C-76.58663928 34.25973796 -76.43910392 32.79626116 -76.29458618 31.33248901 C-74.97145056 18.00896729 -73.14633439 3.97214768 -62.94921875 -5.65234375 C-43.97038749 -19.5566212 -17.51452528 -13.0379693 0 0 Z M-42.7578125 17.7421875 C-44.3074434 21.2404773 -45.08014719 24.24282204 -45.390625 28.05078125 C-45.47441406 29.04529297 -45.55820312 30.03980469 -45.64453125 31.06445312 C-45.72316406 32.09248047 -45.80179688 33.12050781 -45.8828125 34.1796875 C-45.96917969 35.20384766 -46.05554687 36.22800781 -46.14453125 37.28320312 C-46.53845335 42.11343844 -46.87429557 46.89149961 -46.7578125 51.7421875 C-40.60069402 54.82074674 -28.15495723 53.53174251 -21.5703125 51.7421875 C-16.75774271 49.7298309 -13.48285116 46.11192405 -10.7578125 41.7421875 C-9.51555532 37.7393588 -9.45281742 35.71817177 -10.6953125 31.7421875 C-15.27980469 25.07383523 -21.80866453 19.7234706 -29.7578125 17.7421875 C-34.11554871 17.44216277 -38.39867135 17.49963869 -42.7578125 17.7421875 Z " fill="#5D6FF9" transform="translate(92.7578125,98.2578125)"/>
<path d="M0 0 C0.90144241 -0.00191345 1.80288483 -0.0038269 2.73164368 -0.00579834 C4.63709798 -0.00715689 6.54256163 -0.00348354 8.44799805 0.00488281 C11.33599174 0.01552444 14.2233545 0.00500869 17.11132812 -0.0078125 C18.97005344 -0.00648963 20.82877836 -0.0039246 22.6875 0 C23.96460091 -0.00607269 23.96460091 -0.00607269 25.26750183 -0.01226807 C33.75918811 0.05270252 42.00104836 0.44011993 48.33203125 6.63671875 C51.47909873 10.45162322 51.85449806 13.99407413 51.55078125 18.765625 C50.93359409 23.07141306 49.53402406 25.91739771 46.67578125 29.265625 C43.34272289 31.43451614 40.58716253 31.51132628 36.66015625 31.49609375 C35.49097656 31.49416016 34.32179688 31.49222656 33.1171875 31.49023438 C31.89902344 31.47798828 30.68085938 31.46574219 29.42578125 31.453125 C28.22308594 31.45248047 27.02039063 31.45183594 25.78125 31.45117188 C19.58173272 31.42054857 13.87720526 31.040803 7.67578125 30.265625 C6.68578125 37.525625 5.69578125 44.785625 4.67578125 52.265625 C6.98578125 52.20375 9.29578125 52.141875 11.67578125 52.078125 C19.33010007 52.01394129 24.60695389 52.65385704 30.61328125 57.765625 C34.01180614 61.88504911 34.02045134 65.62247489 33.953125 70.76171875 C33.41163459 75.65038566 30.81543347 78.2346896 27.30078125 81.4140625 C22.51518206 84.51906583 16.77923981 83.68339876 11.30078125 83.515625 C10.18316406 83.49757813 9.06554687 83.47953125 7.9140625 83.4609375 C5.16759835 83.41398939 2.42157763 83.34225188 -0.32421875 83.265625 C-1.31421875 89.865625 -2.30421875 96.465625 -3.32421875 103.265625 C-2.33421875 102.935625 -1.34421875 102.605625 -0.32421875 102.265625 C1.00933418 102.16105919 2.34729913 102.10733645 3.68481445 102.08862305 C4.48607254 102.07578781 5.28733063 102.06295258 6.11286926 102.04972839 C6.97538803 102.04234146 7.8379068 102.03495453 8.7265625 102.02734375 C9.61812546 102.019272 10.50968842 102.01120026 11.42826843 102.00288391 C13.31535911 101.98905594 15.20247467 101.97832803 17.08959961 101.97045898 C19.96711925 101.95325155 22.84348806 101.90935512 25.72070312 101.86523438 C27.55598115 101.85510645 29.39126893 101.84659066 31.2265625 101.83984375 C32.51123161 101.81358162 32.51123161 101.81358162 33.82185364 101.78678894 C39.27457214 101.80646578 42.33665573 102.65633594 46.67578125 106.265625 C50.51772702 110.50501344 51.04184804 114.48915006 50.95703125 120.171875 C50.4496526 123.94902714 48.91598969 126.17777012 46.67578125 129.265625 C42.61998454 132.35702432 39.48909049 132.65371865 34.453125 132.70703125 C33.75931229 132.71955933 33.06549957 132.7320874 32.35066223 132.74499512 C30.87030097 132.77099297 29.38982217 132.7909003 27.90930176 132.8052063 C24.05346171 132.843695 20.19875346 132.92840692 16.34375 133.015625 C15.5870401 133.03214615 14.8303302 133.0486673 14.0506897 133.06568909 C8.14047156 133.21234392 2.29945131 133.64573144 -3.57421875 134.328125 C-25.70858206 136.79489954 -25.70858206 136.79489954 -32.87109375 131.75 C-35.20843203 129.36239638 -36.23426512 127.17368813 -36.56471252 123.83789062 C-36.47966188 117.39101514 -35.96621488 111.14380564 -35.0390625 104.765625 C-34.90264847 103.78732727 -34.76623444 102.80902954 -34.62568665 101.80108643 C-34.17936328 98.62135517 -33.72121468 95.44347742 -33.26171875 92.265625 C-32.94555363 90.04525941 -32.62947403 87.82488164 -32.31347656 85.60449219 C-30.20391207 70.88650782 -27.95436712 56.19220083 -25.57421875 41.515625 C-25.43200897 40.63455078 -25.28979919 39.75347656 -25.14328003 38.84570312 C-20.00114109 7.13155844 -20.00114109 7.13155844 -14.32421875 2.265625 C-9.6790766 -0.2430242 -5.14173933 -0.02416205 0 0 Z " fill="#946DE6" transform="translate(294.32421875,79.734375)"/>
<path d="M0 0 C3.06612817 1.7815936 5.29130255 3.3412507 7.26953125 6.30859375 C8.79426304 14.69461861 7.34005327 23.46051567 6.45703125 31.8515625 C6.25355144 33.84516149 6.05007482 35.83876081 5.8467865 37.83237934 C5.56330174 40.60205833 5.27579194 43.37131313 4.98815918 46.14056396 C4.48361984 50.99960742 3.9819505 55.85893978 3.4855957 60.71882629 C3.22155283 63.30010293 2.95458022 65.88108197 2.68432617 68.4617157 C2.56420166 69.6334584 2.44407715 70.80520111 2.3203125 72.01245117 C2.21372314 73.03787521 2.10713379 74.06329926 1.99731445 75.11979675 C1.76540866 78.11178232 1.73015052 81.05890302 1.76953125 84.05859375 C2.88811523 83.88469116 2.88811523 83.88469116 4.02929688 83.70727539 C7.44252135 83.17733574 10.85602277 82.64920079 14.26953125 82.12109375 C16.02910156 81.84749023 16.02910156 81.84749023 17.82421875 81.56835938 C35.32023938 78.86532248 35.32023938 78.86532248 43.89453125 78.68359375 C44.57128906 78.64621094 45.24804688 78.60882813 45.9453125 78.5703125 C49.82112234 78.50284192 52.21345357 79.03297957 55.17578125 81.43359375 C58.77682294 85.07802148 59.61423549 87.38139949 60.08203125 92.43359375 C59.59596545 98.07195702 58.02071719 101.68534089 54.20703125 105.87109375 C48.10337382 110.46208543 38.73047059 110.3906183 31.40429688 111.40307617 C17.11897926 113.37833251 2.50005364 115.48175295 -11.23046875 120.05859375 C-17.68922359 120.8356826 -22.9545362 119.9917777 -28.23046875 116.05859375 C-31.53836318 112.50865827 -32.2395056 110.65713274 -32.21211243 105.81152344 C-32.07098274 103.91515137 -32.07098274 103.91515137 -31.92700195 101.98046875 C-31.87642041 101.28115234 -31.82583887 100.58183594 -31.77372456 99.86132812 C-31.60470925 97.59261523 -31.42019544 95.32566434 -31.23046875 93.05859375 C-31.16866299 92.31629517 -31.10685722 91.57399658 -31.04317856 90.8092041 C-30.57018839 85.22248231 -30.05272534 79.64023073 -29.5234375 74.05859375 C-29.44108667 73.18961456 -29.35873585 72.32063538 -29.27388954 71.42532349 C-28.83859403 66.84454472 -28.39908599 62.26418949 -27.95678711 57.68408203 C-27.59422497 53.92019752 -27.24085376 50.15561685 -26.89526367 46.39013672 C-26.47384971 41.79910677 -26.03675796 37.2098217 -25.58849525 32.62133789 C-25.42162966 30.88683194 -25.26015985 29.15179747 -25.1043911 27.41625977 C-24.88563915 24.99193559 -24.64671124 22.57037052 -24.40307617 20.1484375 C-24.34422241 19.44492661 -24.28536865 18.74141571 -24.22473145 18.0165863 C-23.67323742 12.84356221 -22.12602562 8.41306518 -19.23046875 4.05859375 C-13.52703326 -0.48087532 -7.03777637 -2.97040999 0 0 Z " fill="#B86BDB" transform="translate(455.23046875,95.94140625)"/>
<path d="M0 0 C0.33 0 0.66 0 1 0 C1.59755468 3.34500719 2.04220618 6.59712652 2 10 C0.25 12.5 0.25 12.5 -2 15 C-4.63495328 21.26691592 -5.46738802 27.87555216 -6.3984375 34.55859375 C-7.25123409 39.43725476 -8.69806435 44.09184379 -10.11328125 48.83203125 C-11.7148706 54.55400905 -12.14863623 60.05455083 -12 66 C-13.485 66.495 -13.485 66.495 -15 67 C-14.48279755 58.24150606 -13.18343461 49.830024 -11.375 41.25 C-10.98501831 39.3786438 -10.98501831 39.3786438 -10.5871582 37.46948242 C-4.4662876 8.9325752 -4.4662876 8.9325752 0 0 Z " fill="#C478CC" transform="translate(548,152)"/>
<path d="M0 0 C2.475 0.495 2.475 0.495 5 1 C5 1.66 5 2.32 5 3 C6.299375 3.12375 7.59875 3.2475 8.9375 3.375 C11.15234375 3.5859375 11.15234375 3.5859375 13 4 C14 6 14 6 15 8 C18.3 7.67 21.6 7.34 25 7 C25.33 7.99 25.66 8.98 26 10 C29.36383177 11.43041445 32.67775797 10.93820605 36.25 10.625 C37.39339844 10.52574219 38.53679688 10.42648438 39.71484375 10.32421875 C43.48922443 9.95171745 47.24265524 9.51571399 51 9 C42.50658805 14.66227463 30.21390899 14.10562795 20.53125 12.3828125 C12.54175781 10.23325865 6.21675049 6.44432858 0 1 C0 0.67 0 0.34 0 0 Z M16 4 C16.66 4.66 17.32 5.32 18 6 C17.01 5.67 16.02 5.34 15 5 C15.33 4.67 15.66 4.34 16 4 Z " fill="#E077C6" transform="translate(654,204)"/>
<path d="M0 0 C8.46559984 12.69839976 5.28994303 34.72412924 3 49 C2.18820599 52.74371024 1.24611162 56.37796889 0 60 C-0.93619813 56.84493858 -1.1057123 54.03413498 -1.0625 50.75 C-1.05347656 49.85796875 -1.04445312 48.9659375 -1.03515625 48.046875 C-1.02355469 47.37140625 -1.01195312 46.6959375 -1 46 C-0.34 46 0.32 46 1 46 C0.835 45.29875 0.67 44.5975 0.5 43.875 C-0.32800361 39.11397925 -0.73604756 36.10407134 2 32 C2.19859279 29.2897925 2.28292593 26.70786371 2.25 24 C2.24613281 23.24050049 2.24226562 22.48100098 2.23828125 21.69848633 C2.15744748 16.40106784 1.60826849 11.37824326 0.4375 6.19921875 C0 4 0 4 0 0 Z " fill="#8F7CD8" transform="translate(235,108)"/>
<path d="M0 0 C0.66 0 1.32 0 2 0 C1.06452965 9.35470346 -4.37105891 17.88625303 -11.31640625 24.05859375 C-17.51056338 29 -17.51056338 29 -20 29 C-20 28.34 -20 27.68 -20 27 C-17.72919091 25.17073712 -15.35655102 23.52449717 -12.96875 21.8515625 C-12.3190625 21.24054688 -11.669375 20.62953125 -11 20 C-11 18.68 -11 17.36 -11 16 C-8.73413495 13.26533528 -7.3985407 12.1328469 -4 11 C-2.77479736 7.99152582 -2.77479736 7.99152582 -2 5 C-2.45375 5.495 -2.9075 5.99 -3.375 6.5 C-5 8 -5 8 -7 8 C-6.67 6.35 -6.34 4.7 -6 3 C-5.195625 2.87625 -4.39125 2.7525 -3.5625 2.625 C-2.716875 2.41875 -1.87125 2.2125 -1 2 C-0.67 1.34 -0.34 0.68 0 0 Z " fill="#6C71E5" transform="translate(109,144)"/>
<path d="M0 0 C0.33 0 0.66 0 1 0 C1 2.64 1 5.28 1 8 C1.66 8.33 2.32 8.66 3 9 C3 9.99 3 10.98 3 12 C2.34 12 1.68 12 1 12 C0.66259915 13.91595482 0.33023588 15.83279722 0 17.75 C-0.185625 18.81734375 -0.37125 19.8846875 -0.5625 20.984375 C-1.09571643 24.15189374 -1.09571643 24.15189374 -1 28 C-0.34 28 0.32 28 1 28 C0.67 30.64 0.34 33.28 0 36 C-1.485 36.495 -1.485 36.495 -3 37 C-3.33 40.96 -3.66 44.92 -4 49 C-4.33 49 -4.66 49 -5 49 C-5.43620251 38.16884927 -4.08575944 27.87168728 -2.5 17.1875 C-2.25827944 15.5124901 -2.01738847 13.83736026 -1.77734375 12.16210938 C-1.19442954 8.10662976 -0.6003865 4.05292821 0 0 Z " fill="#DA73C5" transform="translate(652,122)"/>
<path d="M0 0 C0.33 0 0.66 0 1 0 C1.04487549 0.56807373 1.08975098 1.13614746 1.13598633 1.72143555 C2.07878567 18.14210683 2.07878567 18.14210683 6 34 C6.99 34.66 7.98 35.32 9 36 C9.33 35.01 9.66 34.02 10 33 C12.14336161 36.4766338 12.21277626 39.21229195 12.125 43.25 C12.10695312 44.32765625 12.08890625 45.4053125 12.0703125 46.515625 C12.03550781 47.74539062 12.03550781 47.74539062 12 49 C3.75509251 41.71380268 0.96831174 27.3064494 0.1171875 16.76953125 C-0.119283 11.18094512 -0.07251785 5.59193209 0 0 Z " fill="#7976DF" transform="translate(131,143)"/>
<path d="M0 0 C1.26541626 -0.00229614 1.26541626 -0.00229614 2.55639648 -0.00463867 C7.59475027 0.08461074 11.84838492 0.76562834 16.625 2.375 C14.09382637 3.25117549 12.61774123 3.37366481 9.94921875 2.8828125 C6.20261836 2.31047637 2.84170523 2.43199369 -0.9375 2.6875 C-2.21753906 2.76613281 -3.49757812 2.84476562 -4.81640625 2.92578125 C-8.10416978 3.34081177 -10.35400976 4.11385646 -13.375 5.375 C-15.63617071 5.80443688 -17.90858565 6.17772928 -20.1875 6.5 C-21.34894531 6.66757813 -22.51039063 6.83515625 -23.70703125 7.0078125 C-25.02767578 7.18957031 -25.02767578 7.18957031 -26.375 7.375 C-20.1815081 0.09712568 -8.83660468 0.00893489 0 0 Z " fill="#8279DA" transform="translate(188.375,76.625)"/>
<path d="M0 0 C-0.66 0.66 -1.32 1.32 -2 2 C-2.99 2 -3.98 2 -5 2 C-4.67 3.65 -4.34 5.3 -4 7 C-5.32 7 -6.64 7 -8 7 C-8.33 6.34 -8.66 5.68 -9 5 C-13.92991345 4.71000509 -17.09251769 4.80296902 -21 8 C-21 8.99 -21 9.98 -21 11 C-21.66 11 -22.32 11 -23 11 C-23.33 11.99 -23.66 12.98 -24 14 C-24.8125 12.375 -24.8125 12.375 -25 10 C-21.40158679 4.12259176 -17.50296207 2.64467593 -11 1 C-10.25621094 0.7834375 -9.51242187 0.566875 -8.74609375 0.34375 C-3.43168168 -1.14389389 -3.43168168 -1.14389389 0 0 Z " fill="#E872C8" transform="translate(682,81)"/>
<path d="M0 0 C1.65 0 3.3 0 5 0 C3.68 0.33 2.36 0.66 1 1 C1.01595215 1.68860107 1.0319043 2.37720215 1.04833984 3.08666992 C1.15623899 11.57076556 0.49564854 19.87809223 -0.375 28.3125 C-0.5029857 29.64384359 -0.63059148 30.97522375 -0.7578125 32.30664062 C-0.88671875 33.58345703 -1.015625 34.86027344 -1.1484375 36.17578125 C-1.26364746 37.31958252 -1.37885742 38.46338379 -1.49755859 39.6418457 C-2.03776047 43.25237868 -2.92661344 46.51550712 -4 50 C-4.12375 49.360625 -4.2475 48.72125 -4.375 48.0625 C-4.58125 47.381875 -4.7875 46.70125 -5 46 C-5.66 45.67 -6.32 45.34 -7 45 C-6.01 44.505 -6.01 44.505 -5 44 C-4.56896902 41.48051359 -4.56896902 41.48051359 -4.4375 38.5625 C-4.0941704 33.18834081 -4.0941704 33.18834081 -3 31 C-2.70629032 28.67945383 -2.46383669 26.35234022 -2.24609375 24.0234375 C-2.18092056 23.33819 -2.11574738 22.6529425 -2.04859924 21.94692993 C-1.84115064 19.75662089 -1.63926259 17.56583942 -1.4375 15.375 C-1.29789175 13.89059056 -1.15792228 12.40621504 -1.01757812 10.921875 C-0.67419201 7.28163443 -0.33579123 3.6409499 0 0 Z " fill="#6576D5" transform="translate(41,180)"/>
<path d="M0 0 C0.33 0 0.66 0 1 0 C1.33 4.95 1.66 9.9 2 15 C1.01 15.495 1.01 15.495 0 16 C-0.42985694 18.32353985 -0.42985694 18.32353985 -0.5625 21 C-0.90381679 25.90381679 -0.90381679 25.90381679 -2 27 C-2.23427778 29.01594582 -2.41336124 31.038474 -2.5625 33.0625 C-2.64628906 34.16722656 -2.73007812 35.27195313 -2.81640625 36.41015625 C-2.87699219 37.26480469 -2.93757813 38.11945313 -3 39 C-3.66 39 -4.32 39 -5 39 C-5.10358127 33.65520645 -4.78841883 28.73051299 -3.90625 23.4375 C-3.79526978 22.76074219 -3.68428955 22.08398438 -3.56994629 21.38671875 C-3.21926925 19.25677172 -2.85980803 17.12842146 -2.5 15 C-2.25852815 13.54306582 -2.01763762 12.08603518 -1.77734375 10.62890625 C-1.19160047 7.0847991 -0.59797808 3.54206589 0 0 Z " fill="#8F78D6" transform="translate(268,127)"/>
<path d="M0 0 C0.33 0.66 0.66 1.32 1 2 C1.66 2 2.32 2 3 2 C2.96744792 4.05078125 2.93489583 6.1015625 2.90234375 8.15234375 C2.79438816 10.01732141 2.79438816 10.01732141 4 11 C3.731875 11.639375 3.46375 12.27875 3.1875 12.9375 C1.64635858 16.91202261 0.32390688 20.94884495 -1 25 C-1.33 25 -1.66 25 -2 25 C-1.03644647 8.29157175 -1.03644647 8.29157175 0 0 Z " fill="#AB72D2" transform="translate(425,180)"/>
<path d="M0 0 C0.99 0 1.98 0 3 0 C4 1 5 2 6 3 C11.22472483 6.48314989 15.10612396 6.15734293 21 5 C21.70898438 4.86078125 22.41796875 4.7215625 23.1484375 4.578125 C25.2213818 4.08809808 25.2213818 4.08809808 27 2 C30.99945368 1.02235577 34.02274741 0.94719784 38 2 C30.44292801 6.22586897 18.68232242 9.6957661 10 8 C6.12290552 6.68071091 2.86407902 5.51282844 0.77734375 1.859375 C0.52082031 1.24578125 0.26429688 0.6321875 0 0 Z " fill="#AD7BCE" transform="translate(425,208)"/>
<path d="M0 0 C2 2 2 2 2.375 5.6875 C2.2628981 10.41302622 0.72830113 13.18037842 -2 17 C-2.99 17.33 -3.98 17.66 -5 18 C-5.29296875 11.9453125 -5.29296875 11.9453125 -5 10 C-4.01 9.34 -3.02 8.68 -2 8 C-1.21011855 6.04614933 -1.21011855 6.04614933 -0.8125 3.875 C-0.544375 2.59625 -0.27625 1.3175 0 0 Z " fill="#9B73D6" transform="translate(343,192)"/>
<path d="M0 0 C0.99 0 1.98 0 3 0 C8.10861838 9.69077609 11.06718825 17.87299312 10 29 C9.34 30.32 8.68 31.64 8 33 C8 26.73 8 20.46 8 14 C7.34 14 6.68 14 6 14 C6 12.02 6 10.04 6 8 C5.34 8 4.68 8 4 8 C2 5 2 5 2 1 C1.34 0.67 0.68 0.34 0 0 Z " fill="#6C71D4" transform="translate(103,111)"/>
<path d="M0 0 C1.13598633 0.00483398 1.13598633 0.00483398 2.29492188 0.00976562 C3.47344727 0.02233398 3.47344727 0.02233398 4.67578125 0.03515625 C5.47306641 0.03966797 6.27035156 0.04417969 7.09179688 0.04882812 C9.05732382 0.06059775 11.0228121 0.07853277 12.98828125 0.09765625 C12.98828125 0.75765625 12.98828125 1.41765625 12.98828125 2.09765625 C3.58328125 2.59265625 3.58328125 2.59265625 -6.01171875 3.09765625 C-6.34171875 7.38765625 -6.67171875 11.67765625 -7.01171875 16.09765625 C-7.34171875 16.09765625 -7.67171875 16.09765625 -8.01171875 16.09765625 C-9.33260557 10.94619764 -9.04550294 6.02646997 -7.01171875 1.09765625 C-4.30455633 0.19526878 -2.77395107 -0.02085677 0 0 Z " fill="#DD77BF" transform="translate(691.01171875,106.90234375)"/>
<path d="M0 0 C4.58447003 4.13501218 5.78718725 9.2721275 6.2578125 15.3046875 C6.34389362 20.72779799 6.31554973 25.01833922 4 30 C3.67 30 3.34 30 3 30 C3.03480469 28.30230469 3.03480469 28.30230469 3.0703125 26.5703125 C3.08906901 25.08854825 3.10726934 23.60677688 3.125 22.125 C3.14175781 21.37863281 3.15851562 20.63226563 3.17578125 19.86328125 C3.1933959 17.90805539 3.10320189 15.95257979 3 14 C2.34 13.34 1.68 12.68 1 12 C1.66 12 2.32 12 3 12 C2.7834375 11.38511719 2.566875 10.77023438 2.34375 10.13671875 C2.0653125 9.32847656 1.786875 8.52023438 1.5 7.6875 C1.2215625 6.88699219 0.943125 6.08648437 0.65625 5.26171875 C0 3 0 3 0 0 Z " fill="#ED78BE" transform="translate(752,105)"/>
<path d="M0 0 C0.66 0.66 1.32 1.32 2 2 C-0.64 2 -3.28 2 -6 2 C-5.79375 2.61875 -5.5875 3.2375 -5.375 3.875 C-5.25125 4.57625 -5.1275 5.2775 -5 6 C-5.66 6.66 -6.32 7.32 -7 8 C-7 7.34 -7 6.68 -7 6 C-9.64 6 -12.28 6 -15 6 C-15.33 6.66 -15.66 7.32 -16 8 C-16.66 8 -17.32 8 -18 8 C-16.25766128 3.81134732 -14.24119359 2.61498754 -10.234375 0.7578125 C-6.62040517 -0.46790454 -3.79412476 -0.39249566 0 0 Z " fill="#AF73CD" transform="translate(453,95)"/>
<path d="M0 0 C0.33 0 0.66 0 1 0 C1.05880857 3.95826931 1.09386513 7.91642392 1.125 11.875 C1.14175781 12.98359375 1.15851562 14.0921875 1.17578125 15.234375 C1.21604215 22.07872779 0.66732206 28.35514827 -1 35 C-3.50087187 31.22792083 -3.00705922 28.2200942 -2.5390625 23.828125 C-2.43493546 22.8044986 -2.43493546 22.8044986 -2.32870483 21.76019287 C-2.10524745 19.58879776 -1.8653702 17.41958143 -1.625 15.25 C-1.47026659 13.77485326 -1.31660844 12.2995933 -1.1640625 10.82421875 C-0.78849263 7.21475046 -0.39818107 3.60705204 0 0 Z " fill="#687DE4" transform="translate(12,173)"/>
<path d="M0 0 C0.66 0 1.32 0 2 0 C1.8460376 0.71567139 1.6920752 1.43134277 1.53344727 2.16870117 C1.02089766 4.88908458 0.70663911 7.54431411 0.46484375 10.30078125 C0.37783203 11.27724609 0.29082031 12.25371094 0.20117188 13.25976562 C0.11416016 14.26716797 0.02714844 15.27457031 -0.0625 16.3125 C-0.15337891 17.33923828 -0.24425781 18.36597656 -0.33789062 19.42382812 C-0.56104654 21.94901351 -0.78166711 24.4743938 -1 27 C-3.06240906 23.90638642 -3.38991902 22.53301454 -3.75 18.9375 C-3.84796875 18.05964844 -3.9459375 17.18179688 -4.046875 16.27734375 C-4 14 -4 14 -2 12 C-1.57446839 9.37023476 -1.57446839 9.37023476 -1.4375 6.4375 C-1.09722222 1.09722222 -1.09722222 1.09722222 0 0 Z " fill="#6274E7" transform="translate(48,116)"/>
<path d="M0 0 C0.33 0 0.66 0 1 0 C0.61198753 7.63983183 0.09350653 12.42313308 -5 18.3125 C-9.52989091 20.86056364 -13.91535021 20.32057337 -19 20 C-19 19.67 -19 19.34 -19 19 C-18.43152344 18.99742187 -17.86304688 18.99484375 -17.27734375 18.9921875 C-11.97221913 18.72648844 -8.35122901 17.78976266 -4.44140625 14.09765625 C-1.56713831 9.91477852 -0.83769292 4.93042117 0 0 Z " fill="#C578C6" transform="translate(563,212)"/>
<path d="M0 0 C2.54348425 -0.13593443 5.07961496 -0.23448907 7.625 -0.3125 C8.33785156 -0.35439453 9.05070312 -0.39628906 9.78515625 -0.43945312 C13.8143899 -0.53186674 16.25375039 -0.21612172 19.4375 2.37109375 C23.17530014 6.20575761 23.95020807 8.48134608 24.125 13.8125 C24.08375 14.864375 24.0425 15.91625 24 17 C23.67 17 23.34 17 23 17 C22.84144531 16.41992188 22.68289063 15.83984375 22.51953125 15.2421875 C20.41096486 7.45520729 20.41096486 7.45520729 15 2 C9.98339886 1.19691551 5.0738734 1.01276446 0 1 C0 0.67 0 0.34 0 0 Z " fill="#B77EC3" transform="translate(491,175)"/>
<path d="M0 0 C2.80281218 1.40140609 4.64713742 2.42869868 6.3125 5.125 C7.8144302 11.40579904 7.07245407 17.69933237 6 24 C5.67 24 5.34 24 5 24 C4.90912109 22.82244141 4.90912109 22.82244141 4.81640625 21.62109375 C4.56050328 18.41246418 4.28455097 15.20620816 4 12 C3.93941406 11.2575 3.87882812 10.515 3.81640625 9.75 C3.43308503 6.12018273 2.82387908 4.33276967 0 2 C0 1.34 0 0.68 0 0 Z " fill="#AF7ACB" transform="translate(456,97)"/>
<path d="M0 0 C0.33 0 0.66 0 1 0 C1.12117187 0.845625 1.24234375 1.69125 1.3671875 2.5625 C2.61345457 10.99876942 4.1765382 18.9329663 7 27 C6.01 26.67 5.02 26.34 4 26 C0.70364996 19.40729992 -0.13077033 13.99242516 -0.0625 6.6875 C-0.05347656 5.43324219 -0.04445313 4.17898437 -0.03515625 2.88671875 C-0.01775391 1.45779297 -0.01775391 1.45779297 0 0 Z " fill="#D677C2" transform="translate(646,173)"/>
<path d="M0 0 C0.82062424 0.00007553 1.64124847 0.00015106 2.48674011 0.00022888 C3.80875175 0.00797081 3.80875175 0.00797081 5.1574707 0.01586914 C6.5161602 0.01799156 6.5161602 0.01799156 7.90229797 0.02015686 C10.79598286 0.02575538 13.68959044 0.03830758 16.58325195 0.05102539 C18.54483938 0.05604058 20.50642801 0.06060346 22.46801758 0.06469727 C27.27729217 0.07572432 32.08650895 0.09298792 36.89575195 0.11352539 C36.89575195 0.44352539 36.89575195 0.77352539 36.89575195 1.11352539 C35.73003662 1.13858154 34.56432129 1.1636377 33.36328125 1.18945312 C29.04139064 1.2835723 24.71965906 1.38378208 20.39794922 1.48583984 C18.52689329 1.52917161 16.65579826 1.57084796 14.78466797 1.61083984 C12.09631565 1.66858488 9.4081598 1.7322672 6.7199707 1.79711914 C5.4635804 1.82218788 5.4635804 1.82218788 4.18180847 1.84776306 C0.85901907 1.932666 -1.93176823 2.05603212 -5.10424805 3.11352539 C-5.76424805 2.45352539 -6.42424805 1.79352539 -7.10424805 1.11352539 C-4.37318294 0.20317036 -2.80531566 -0.00863174 0 0 Z " fill="#9475D1" transform="translate(289.104248046875,79.886474609375)"/>
<path d="M0 0 C1 3 1 3 0 6 C-0.13444879 7.4681947 -0.22358533 8.94085276 -0.28125 10.4140625 C-0.33732422 11.67863281 -0.33732422 11.67863281 -0.39453125 12.96875 C-0.46515346 14.74738356 -0.53546326 16.52602956 -0.60546875 18.3046875 C-0.66154297 19.56539062 -0.66154297 19.56539062 -0.71875 20.8515625 C-0.74904297 21.62322754 -0.77933594 22.39489258 -0.81054688 23.18994141 C-1 25 -1 25 -2 26 C-2.36760731 28.32817964 -2.70241581 30.6618385 -3 33 C-3.33 33 -3.66 33 -4 33 C-4.08886193 26.6781082 -3.79653644 20.5343783 -3.125 14.25 C-3.04636719 13.42628906 -2.96773438 12.60257813 -2.88671875 11.75390625 C-2.44323461 7.51692703 -1.87973513 3.88583901 0 0 Z " fill="#AA76CB" transform="translate(434,103)"/>
<path d="M0 0 C1 3 1 3 -0.51171875 6.21484375 C-1.22638971 7.46185807 -1.9521483 8.70256795 -2.6875 9.9375 C-3.04005859 10.55818359 -3.39261719 11.17886719 -3.75585938 11.81835938 C-5.81528206 15.35363891 -7.95875821 18.26082286 -11 21 C-11 17 -11 17 -9 14.875 C-8.34 14.25625 -7.68 13.6375 -7 13 C-7 12.34 -7 11.68 -7 11 C-6.34 11 -5.68 11 -5 11 C-4.26919734 9.02253397 -3.60578253 7.01927511 -3 5 C-3.33 4.34 -3.66 3.68 -4 3 C-3 1 -3 1 0 0 Z " fill="#8372D8" transform="translate(232,170)"/>
<path d="M0 0 C0.66 0 1.32 0 2 0 C1.85764543 1.72945653 1.71095618 3.45855654 1.5625 5.1875 C1.48128906 6.15042969 1.40007813 7.11335937 1.31640625 8.10546875 C1.02333849 10.78649602 0.57296246 13.3662986 0 16 C-1.65 14.68 -3.3 13.36 -5 12 C-4.34 10.35 -3.68 8.7 -3 7 C-2.34 7 -1.68 7 -1 7 C-0.67 4.69 -0.34 2.38 0 0 Z " fill="#CD6BCF" transform="translate(565,196)"/>
<path d="M0 0 C4.2829452 0.5479083 6.85135641 2.02432804 10.3125 4.5625 C11.19550781 5.20316406 12.07851562 5.84382813 12.98828125 6.50390625 C13.65214844 6.99761719 14.31601563 7.49132812 15 8 C12 8 12 8 9.625 6.375 C7.04227012 4.6365295 7.04227012 4.6365295 4.1875 5.8125 C3.465625 6.204375 2.74375 6.59625 2 7 C2 6.34 2 5.68 2 5 C1.34 4.67 0.68 4.34 0 4 C0 2.68 0 1.36 0 0 Z " fill="#8877E0" transform="translate(208,81)"/>
<path d="M0 0 C0.66 0.33 1.32 0.66 2 1 C3.63890592 7.43239767 3.13544807 12.23077556 0 18 C-1.88136486 12.35590541 -1.52814822 5.73055582 0 0 Z " fill="#9C70DF" transform="translate(343,89)"/>
<path d="M0 0 C0.33 0.66 0.66 1.32 1 2 C-0.2578125 4.56640625 -0.2578125 4.56640625 -2.125 7.5625 C-2.72570312 8.55378906 -3.32640625 9.54507813 -3.9453125 10.56640625 C-6 13 -6 13 -8.4921875 13.90234375 C-10.91735907 13.9967819 -12.70789232 13.76403589 -15 13 C-13.71186658 12.16121545 -12.41936744 11.32913217 -11.125 10.5 C-10.40570313 10.0359375 -9.68640625 9.571875 -8.9453125 9.09375 C-7 8 -7 8 -5 8 C-4.731875 7.4225 -4.46375 6.845 -4.1875 6.25 C-2.98280141 3.9674132 -1.59201885 2.0262058 0 0 Z " fill="#8375DF" transform="translate(201,167)"/>
<path d="M0 0 C3.93707425 1.27688895 5.82013168 2.47068939 8 6 C8.53173828 6.83144531 8.53173828 6.83144531 9.07421875 7.6796875 C10.37016747 10.9277615 10.1894697 13.76863637 10.125 17.25 C10.10695312 18.51328125 10.08890625 19.7765625 10.0703125 21.078125 C10.04710937 22.04234375 10.02390625 23.0065625 10 24 C9.67 24 9.34 24 9 24 C8.90203125 23.07058594 8.8040625 22.14117187 8.703125 21.18359375 C7.68346512 12.75381943 6.78958582 5.77114795 0 0 Z " fill="#8A7FD8" transform="translate(199,110)"/>
<path d="M0 0 C0.33 0.66 0.66 1.32 1 2 C-5.47969052 12.10831721 -5.47969052 12.10831721 -9 15 C-9.66 15 -10.32 15 -11 15 C-11 14.34 -11 13.68 -11 13 C-10.01 12.34 -9.02 11.68 -8 11 C-6.79549696 8.44816596 -6.79549696 8.44816596 -6 6 C-5.34 6 -4.68 6 -4 6 C-3.8453125 5.071875 -3.8453125 5.071875 -3.6875 4.125 C-3 2 -3 2 0 0 Z " fill="#EA7DC1" transform="translate(734,187)"/>
<path d="M0 0 C0.66 0 1.32 0 2 0 C2.04254356 1.99954746 2.04080783 4.00041636 2 6 C1.67 6.33 1.34 6.66 1 7 C1 8.32 1 9.64 1 11 C1 12.32 1 13.64 1 15 C0.67 15.33 0.34 15.66 0 16 C0.08937803 17.52519276 0.24537146 19.04681929 0.4375 20.5625 C0.53933594 21.38878906 0.64117187 22.21507812 0.74609375 23.06640625 C0.82988281 23.70449219 0.91367187 24.34257812 1 25 C0.34 25.33 -0.32 25.66 -1 26 C-4.61952948 18.76094105 -1.34450454 7.55083351 0 0 Z " fill="#8F7BD9" transform="translate(260,182)"/>
<path d="M0 0 C0.99 0 1.98 0 3 0 C3.33 1.32 3.66 2.64 4 4 C3.34 4 2.68 4 2 4 C2 8.29 2 12.58 2 17 C0 15 0 15 -0.1953125 11.5234375 C-0.18201493 10.14049032 -0.15816232 8.75761346 -0.125 7.375 C-0.11597656 6.66859375 -0.10695313 5.9621875 -0.09765625 5.234375 C-0.07407603 3.48943902 -0.03820461 1.74467705 0 0 Z " fill="#CB75C6" transform="translate(595,131)"/>
<path d="M0 0 C1.918125 0.4640625 1.918125 0.4640625 3.875 0.9375 C8.88758722 2.06114833 13.88510956 2.59422581 19 3 C14.95688404 5.69541064 11.75134778 5.6753982 7 5 C4.38495462 3.90444365 2.3622095 2.60831285 0 1 C0 0.67 0 0.34 0 0 Z " fill="#CE7CC6" transform="translate(601,226)"/>
<path d="M0 0 C0.33 0 0.66 0 1 0 C1 4.62 1 9.24 1 14 C1.99 14.33 2.98 14.66 4 15 C4.5625 16.875 4.5625 16.875 5 19 C5.66 19.99 6.32 20.98 7 22 C3.62118566 20.60186993 1.84982122 19.17112209 0 16 C-1.53245632 10.6364029 -0.69920824 5.44306721 0 0 Z " fill="#6E80E7" transform="translate(8,215)"/>
<path d="M0 0 C4 4 4 4 4 6 C3 8 3 8 -0.0625 9.25 C-1.031875 9.4975 -2.00125 9.745 -3 10 C-3.33 9.34 -3.66 8.68 -4 8 C-3.01 7.67 -2.02 7.34 -1 7 C-1.20625 6.401875 -1.4125 5.80375 -1.625 5.1875 C-2 3 -2 3 0 0 Z " fill="#6571F0" transform="translate(85,167)"/>
<path d="M0 0 C1.03387225 3.1981115 1.11048522 3.75894134 -0.375 7 C-0.91125 7.99 -1.4475 8.98 -2 10 C-2.68636625 12.23525035 -2.68636625 12.23525035 -3 14 C-4.32 14.33 -5.64 14.66 -7 15 C-5.45454854 9.52067211 -2.84456788 4.88570819 0 0 Z " fill="#C771C8" transform="translate(562,122)"/>
<path d="M0 0 C0.33 0 0.66 0 1 0 C1.19818283 6.70518586 1.30844801 12.65176798 -1 19 C-1.12375 18.360625 -1.2475 17.72125 -1.375 17.0625 C-1.58125 16.381875 -1.7875 15.70125 -2 15 C-2.66 14.67 -3.32 14.34 -4 14 C-3.34 13.67 -2.68 13.34 -2 13 C-1.56896902 10.48051359 -1.56896902 10.48051359 -1.4375 7.5625 C-1.0941704 2.18834081 -1.0941704 2.18834081 0 0 Z " fill="#6074DF" transform="translate(38,211)"/>
<path d="M0 0 C0.66 0 1.32 0 2 0 C2 0.99 2 1.98 2 3 C3.65 2.34 5.3 1.68 7 1 C5.54955729 5.10958767 3.48889248 8.43258745 1 12 C0.24011648 9.63591793 -0.0820237 8.30986733 0.5625 5.875 C0.706875 5.25625 0.85125 4.6375 1 4 C0.34 3.34 -0.32 2.68 -1 2 C-0.67 1.34 -0.34 0.68 0 0 Z " fill="#CF70C8" transform="translate(587,128)"/>
<path d="M0 0 C0.37125 1.670625 0.37125 1.670625 0.75 3.375 C1.61005339 7.04615198 1.61005339 7.04615198 4.125 8.4375 C4.74375 8.623125 5.3625 8.80875 6 9 C6 9.66 6 10.32 6 11 C5.01 11 4.02 11 3 11 C3 10.34 3 9.68 3 9 C2.071875 8.7834375 2.071875 8.7834375 1.125 8.5625 C-1 8 -1 8 -3 7 C-3.8125 5.125 -3.8125 5.125 -4 3 C-1.64285714 0 -1.64285714 0 0 0 Z " fill="#E176C4" transform="translate(676,178)"/>
<path d="M0 0 C0 3 0 3 -1 6 C-3 6.66666667 -5 7.33333333 -7 8 C-7.33 8.99 -7.66 9.98 -8 11 C-8.66 11 -9.32 11 -10 11 C-10 10.34 -10 9.68 -10 9 C-10.99 8.67 -11.98 8.34 -13 8 C-12.39671875 7.75765625 -11.7934375 7.5153125 -11.171875 7.265625 C-6.70093996 5.39071676 -3.15166283 3.83680693 0 0 Z " fill="#6B74E2" transform="translate(80,142)"/>
<path d="M0 0 C5.875 4.625 5.875 4.625 7 8 C7.09287771 9.68545724 7.12997204 11.374493 7.125 13.0625 C7.12757813 13.94035156 7.13015625 14.81820312 7.1328125 15.72265625 C7 18 7 18 6 20 C5.34 20 4.68 20 4 20 C4 19.01 4 18.02 4 17 C4.66 17 5.32 17 6 17 C5.56476716 11.86425246 5.19875176 8.22235233 2 4 C1.34 3.67 0.68 3.34 0 3 C0 2.01 0 1.02 0 0 Z " fill="#9577D0" transform="translate(321,135)"/>
<path d="M0 0 C0.33 0 0.66 0 1 0 C0.22095672 11.52164009 0.22095672 11.52164009 -2 17 C-2.93619813 13.84493858 -3.1057123 11.03413498 -3.0625 7.75 C-3.05347656 6.85796875 -3.04445312 5.9659375 -3.03515625 5.046875 C-3.02355469 4.37140625 -3.01195312 3.6959375 -3 3 C-2.01 3 -1.02 3 0 3 C0 2.01 0 1.02 0 0 Z " fill="#8977D6" transform="translate(237,151)"/>
<path d="M0 0 C0 0.33 0 0.66 0 1 C-5.94 1.33 -11.88 1.66 -18 2 C-13.03272888 -2.96727112 -6.0939302 -2.33384561 0 0 Z " fill="#D07CC4" transform="translate(611,88)"/>
<path d="M0 0 C0 0.66 0 1.32 0 2 C-0.56589844 2.17015625 -1.13179687 2.3403125 -1.71484375 2.515625 C-2.44832031 2.75796875 -3.18179688 3.0003125 -3.9375 3.25 C-5.03384766 3.59804687 -5.03384766 3.59804687 -6.15234375 3.953125 C-8.20570556 4.8507553 -8.20570556 4.8507553 -8.75390625 7.109375 C-8.83511719 7.73328125 -8.91632812 8.3571875 -9 9 C-9.66 9 -10.32 9 -11 9 C-11.33 9.99 -11.66 10.98 -12 12 C-12.8125 10.375 -12.8125 10.375 -13 8 C-9.27161571 2.67373672 -6.72984702 0 0 0 Z " fill="#D378BC" transform="translate(670,83)"/>
<path d="M0 0 C0 1.98 0 3.96 0 6 C0.66 6.33 1.32 6.66 2 7 C1.01 7.495 1.01 7.495 0 8 C-2.625 7.0625 -2.625 7.0625 -5 6 C-5 4.68 -5 3.36 -5 2 C-2 0 -2 0 0 0 Z " fill="#6870F2" transform="translate(109,119)"/>
<path d="M0 0 C0.66 0.33 1.32 0.66 2 1 C-3.4529148 6.87892377 -3.4529148 6.87892377 -7.24609375 7.17578125 C-9.4375 6.875 -9.4375 6.875 -13 6 C-10.14491782 4.559422 -7.27682755 3.15665758 -4.375 1.8125 C-3.59898437 1.44769531 -2.82296875 1.08289063 -2.0234375 0.70703125 C-1.35570312 0.47371094 -0.68796875 0.24039063 0 0 Z " fill="#E476C2" transform="translate(699,182)"/>
<path d="M0 0 C6.61085476 0.48969295 11.94977014 2.33442742 18 5 C14.90279155 5.87840996 13.09354597 5.99435406 10 5 C10 4.34 10 3.68 10 3 C9.0925 3.061875 8.185 3.12375 7.25 3.1875 C3.71017358 2.98327924 2.55068845 2.35448165 0 0 Z " fill="#E778C0" transform="translate(711,80)"/>
<path d="M0 0 C0.75 1.9375 0.75 1.9375 1 4 C0.67 4.66 0.34 5.32 0 6 C-3.65316671 4.75023244 -4.78065836 4.32901247 -7 1 C-3.375 -1.125 -3.375 -1.125 0 0 Z " fill="#C46ECB" transform="translate(544,225)"/>
<path d="M0 0 C0.66 0 1.32 0 2 0 C2 0.66 2 1.32 2 2 C2.99 2.33 3.98 2.66 5 3 C5.33 4.65 5.66 6.3 6 8 C5.34 8 4.68 8 4 8 C3.67 9.32 3.34 10.64 3 12 C2.34 10.68 1.68 9.36 1 8 C1.66 8 2.32 8 3 8 C2.505 7.05125 2.01 6.1025 1.5 5.125 C0 2 0 2 0 0 Z " fill="#E570D1" transform="translate(650,192)"/>
<path d="M0 0 C1.0625 1.8125 1.0625 1.8125 2 4 C1 7 1 7 -1 8 C-1.72693904 9.97888961 -2.39816251 11.97954558 -3 14 C-3.66 14 -4.32 14 -5 14 C-4.54636829 12.41531323 -4.08688548 10.83230076 -3.625 9.25 C-3.36976563 8.36828125 -3.11453125 7.4865625 -2.8515625 6.578125 C-2.0790066 4.23919428 -1.16374324 2.16557438 0 0 Z " fill="#C277C4" transform="translate(554,137)"/>
<path d="M0 0 C3.98069267 2.87494471 6.43571997 5.82117329 9 10 C8.67 10.66 8.34 11.32 8 12 C6.35 10.68 4.7 9.36 3 8 C3.33 7.67 3.66 7.34 4 7 C3.34 6.401875 2.68 5.80375 2 5.1875 C0 3 0 3 0 0 Z " fill="#8273D1" transform="translate(224,91)"/>
<path d="M0 0 C0 0.99 0 1.98 0 3 C-0.54269531 3.25394531 -1.08539062 3.50789063 -1.64453125 3.76953125 C-2.35996094 4.11371094 -3.07539062 4.45789063 -3.8125 4.8125 C-4.52019531 5.14894531 -5.22789062 5.48539062 -5.95703125 5.83203125 C-8.01129035 7.00645471 -9.41616278 8.25628016 -11 10 C-11.66 9.67 -12.32 9.34 -13 9 C-11.73113036 7.87278564 -10.45982438 6.74831342 -9.1875 5.625 C-8.47980469 4.99851562 -7.77210938 4.37203125 -7.04296875 3.7265625 C-2.63348416 0 -2.63348416 0 0 0 Z " fill="#CB75C3" transform="translate(593,90)"/>
<path d="M0 0 C0.99 0.33 1.98 0.66 3 1 C3 1.66 3 2.32 3 3 C3.66 3 4.32 3 5 3 C5 3.99 5 4.98 5 6 C3.02 6 1.04 6 -1 6 C-0.67 4.02 -0.34 2.04 0 0 Z " fill="#C767DB" transform="translate(505,177)"/>
<path d="M0 0 C-2.34876467 1.56584311 -4.54545647 2.82514963 -7.0625 4.0625 C-7.75472656 4.40410156 -8.44695312 4.74570313 -9.16015625 5.09765625 C-9.76730469 5.39542969 -10.37445313 5.69320312 -11 6 C-11.99 6.495 -11.99 6.495 -13 7 C-12.67 5.35 -12.34 3.7 -12 2 C-7.82262526 0.40861915 -4.46839215 -0.21278058 0 0 Z " fill="#7B71D7" transform="translate(184,107)"/>
<path d="M0 0 C0.33 0 0.66 0 1 0 C2.31281522 6.56407612 1.52653315 10.83354621 -1 17 C-1.33 17 -1.66 17 -2 17 C-1.03644647 5.47835991 -1.03644647 5.47835991 0 0 Z " fill="#8D74D4" transform="translate(274,91)"/>
<path d="M0 0 C6.875 3.75 6.875 3.75 8 6 C5.69 5.67 3.38 5.34 1 5 C0.67 5.66 0.34 6.32 0 7 C-0.66 5.68 -1.32 4.36 -2 3 C-1.34 2.67 -0.68 2.34 0 2 C0 1.34 0 0.68 0 0 Z " fill="#EC6EBF" transform="translate(734,88)"/>
<path d="M0 0 C0.33 0 0.66 0 1 0 C1 4.95 1 9.9 1 15 C0.01 15.33 -0.98 15.66 -2 16 C-1.85833643 14.08302063 -1.71150416 12.16642277 -1.5625 10.25 C-1.48128906 9.18265625 -1.40007813 8.1153125 -1.31640625 7.015625 C-1.05909227 4.56320038 -0.68187782 2.36078709 0 0 Z " fill="#BE77C5" transform="translate(535,203)"/>
<path d="M0 0 C0.598125 0.20625 1.19625 0.4125 1.8125 0.625 C0.1625 1.285 -1.4875 1.945 -3.1875 2.625 C-2.8575 4.275 -2.5275 5.925 -2.1875 7.625 C-3.5075 6.965 -4.8275 6.305 -6.1875 5.625 C-5.875 3.75 -5.875 3.75 -5.1875 1.625 C-2.1875 -0.375 -2.1875 -0.375 0 0 Z " fill="#E673C1" transform="translate(738.1875,150.375)"/>
<path d="M0 0 C3.91402949 1.26941497 5.79072873 2.51167694 8 6 C7.0925 5.649375 6.185 5.29875 5.25 4.9375 C2.12241564 4.03531221 0.94791919 3.86618493 -2 5 C-2 4.01 -2 3.02 -2 2 C-1.34 2 -0.68 2 0 2 C0 1.34 0 0.68 0 0 Z " fill="#6870E1" transform="translate(88,96)"/>
<path d="M0 0 C2.31 0 4.62 0 7 0 C4.26295246 2.73704754 1.73955226 3.16182449 -2 4 C-4.4375 3.625 -4.4375 3.625 -6 3 C-5 2 -5 2 -2.4375 1.9375 C-1.2309375 1.9684375 -1.2309375 1.9684375 0 2 C0 1.34 0 0.68 0 0 Z " fill="#646FDA" transform="translate(74,177)"/>
<path d="M0 0 C2.475 0.495 2.475 0.495 5 1 C5 1.66 5 2.32 5 3 C7.475 3.99 7.475 3.99 10 5 C8.375 5.8125 8.375 5.8125 6 6 C3.70232365 4.54854104 1.98596134 2.89569037 0 1 C0 0.67 0 0.34 0 0 Z " fill="#DC76C7" transform="translate(654,204)"/>
<path d="M0 0 C0.66 0.33 1.32 0.66 2 1 C2.4140625 3.50390625 2.4140625 3.50390625 2.625 6.5625 C2.69976562 7.57441406 2.77453125 8.58632812 2.8515625 9.62890625 C2.92503906 10.80259766 2.92503906 10.80259766 3 12 C1.68 11.01 0.36 10.02 -1 9 C-0.34 9 0.32 9 1 9 C0.649375 7.88625 0.29875 6.7725 -0.0625 5.625 C-1 2 -1 2 0 0 Z " fill="#8873E2" transform="translate(233,104)"/>
<path d="M0 0 C0.66 0 1.32 0 2 0 C1.67 3.63 1.34 7.26 1 11 C-1.78637633 6.8204355 -0.79562512 4.85331323 0 0 Z " fill="#C479C5" transform="translate(565,196)"/>
<path d="M0 0 C1.55078125 1.671875 1.55078125 1.671875 3 4 C2.85546875 6.578125 2.85546875 6.578125 2.1875 9.25 C1.86845703 10.58804688 1.86845703 10.58804688 1.54296875 11.953125 C1.36378906 12.62859375 1.18460938 13.3040625 1 14 C-1.02907167 10.6853333 -1.12742133 8.5684021 -0.625 4.75 C-0.51414062 3.85796875 -0.40328125 2.9659375 -0.2890625 2.046875 C-0.19367187 1.37140625 -0.09828125 0.6959375 0 0 Z " fill="#6F84F2" transform="translate(10,194)"/>
<path d="M0 0 C-1.29009643 0.50403768 -2.58213789 1.00309926 -3.875 1.5 C-4.95394531 1.91765625 -4.95394531 1.91765625 -6.0546875 2.34375 C-8 3 -8 3 -10 3 C-10 2.01 -10 1.02 -10 0 C-6.26432828 -0.76411467 -3.65188082 -1.07174763 0 0 Z " fill="#B277D3" transform="translate(467,180)"/>
<path d="M0 0 C0.33 0 0.66 0 1 0 C1.07654536 4.51617599 1.10228696 8.59085217 0 13 C-0.33 13 -0.66 13 -1 13 C-2.20577428 8.05632546 -1.6290678 4.79137588 0 0 Z " fill="#8D73CD" transform="translate(292,163)"/>
<path d="M0 0 C0.66 0 1.32 0 2 0 C2.9765625 6.0546875 2.9765625 6.0546875 3 8 C2.34 8.66 1.68 9.32 1 10 C-0.60725635 6.78548731 -0.05748185 3.56387464 0 0 Z " fill="#AC6DD7" transform="translate(426,170)"/>
<path d="M0 0 C0.66 0.33 1.32 0.66 2 1 C0.71372289 2.17260611 -0.57919783 3.3379283 -1.875 4.5 C-2.59429687 5.1496875 -3.31359375 5.799375 -4.0546875 6.46875 C-6 8 -6 8 -8 8 C-8 7.34 -8 6.68 -8 6 C-6.25 4.4921875 -6.25 4.4921875 -4 2.875 C-3.2575 2.33617187 -2.515 1.79734375 -1.75 1.2421875 C-1.1725 0.83226562 -0.595 0.42234375 0 0 Z " fill="#686DD7" transform="translate(97,165)"/>
<path d="M0 0 C0 0.99 0 1.98 0 3 C-2.31 3 -4.62 3 -7 3 C-7.33 2.34 -7.66 1.68 -8 1 C-5.07175348 0.02391783 -3.04386724 -0.08226668 0 0 Z " fill="#CB6FC5" transform="translate(595,163)"/>
<path d="M0 0 C1.5 1.3125 1.5 1.3125 3 3 C3 3.99 3 4.98 3 6 C0.03 5.505 0.03 5.505 -3 5 C-2.01 3.35 -1.02 1.7 0 0 Z " fill="#E66DC3" transform="translate(701,161)"/>
<path d="M0 0 C0.66 0 1.32 0 2 0 C1.34 4.62 0.68 9.24 0 14 C-0.33 14 -0.66 14 -1 14 C-1.02685938 11.85423363 -1.04633088 9.70837355 -1.0625 7.5625 C-1.07410156 6.36753906 -1.08570313 5.17257813 -1.09765625 3.94140625 C-1 1 -1 1 0 0 Z " fill="#636EDA" transform="translate(48,116)"/>
<path d="M0 0 C0.33 0 0.66 0 1 0 C0.40546697 9.59453303 0.40546697 9.59453303 -3 13 C-2.52060632 8.28596212 -2.03165952 4.33420699 0 0 Z " fill="#9B75CE" transform="translate(345,94)"/>
<path d="M0 0 C0.66 0.33 1.32 0.66 2 1 C1.195625 1.763125 0.39125 2.52625 -0.4375 3.3125 C-3.16799024 5.79430898 -3.16799024 5.79430898 -4 9 C-4.99 9 -5.98 9 -7 9 C-5.44499019 5.18315774 -2.96404505 2.80804268 0 0 Z " fill="#6075DA" transform="translate(32,91)"/>
<path d="M0 0 C5.53846154 0.61538462 5.53846154 0.61538462 7.875 2.5625 C8.431875 3.2740625 8.431875 3.2740625 9 4 C2.25 3.125 2.25 3.125 0 2 C0 1.34 0 0.68 0 0 Z " fill="#786FDB" transform="translate(161,207)"/>
<path d="M0 0 C0.99 0.33 1.98 0.66 3 1 C1.7508258 4.45925163 0.32472205 7.14693203 -2 10 C-1.54177532 6.53058454 -1.10868317 3.32604951 0 0 Z " fill="#7B74D7" transform="translate(168,113)"/>
<path d="M0 0 C0.99 0 1.98 0 3 0 C4.32 2.64 5.64 5.28 7 8 C6.01 8 5.02 8 4 8 C2 5 2 5 2 1 C1.34 0.67 0.68 0.34 0 0 Z " fill="#7578E4" transform="translate(103,111)"/>
<path d="M0 0 C1.32 0.33 2.64 0.66 4 1 C3.0409375 2.1446875 3.0409375 2.1446875 2.0625 3.3125 C-0.14232781 5.88246713 -0.14232781 5.88246713 -1 9 C-1.66 8.67 -2.32 8.34 -3 8 C-2.01 5.36 -1.02 2.72 0 0 Z " fill="#8581E7" transform="translate(138,110)"/>
<path d="M0 0 C0.66 0 1.32 0 2 0 C1 3 1 3 -1 4 C-2.0409066 5.64142963 -3.04504326 7.30712215 -4 9 C-4.33 8.01 -4.66 7.02 -5 6 C-2.6875 2.8125 -2.6875 2.8125 0 0 Z " fill="#937ED0" transform="translate(280,82)"/>
<path d="M0 0 C0.8125 1.6875 0.8125 1.6875 1 4 C-1.4375 6.75 -1.4375 6.75 -4 9 C-3.67 7.35 -3.34 5.7 -3 4 C-2.34 4 -1.68 4 -1 4 C-0.67 2.68 -0.34 1.36 0 0 Z " fill="#CF7BC2" transform="translate(626,219)"/>
<path d="M0 0 C0.66 0.33 1.32 0.66 2 1 C0.35 2.98 -1.3 4.96 -3 7 C-3.66 5.68 -4.32 4.36 -5 3 C-2.625 1.4375 -2.625 1.4375 0 0 Z " fill="#FA65C0" transform="translate(751,136)"/>
<path d="M0 0 C0.66 0.99 1.32 1.98 2 3 C1.67 3.33 1.34 3.66 1 4 C0.72046781 6.0587768 0.55265649 8.11728432 0.37890625 10.1875 C0.25386719 10.785625 0.12882812 11.38375 0 12 C-0.99 12.495 -0.99 12.495 -2 13 C-1.85966889 11.02043559 -1.7125877 9.04134859 -1.5625 7.0625 C-1.48128906 5.96035156 -1.40007813 4.85820313 -1.31640625 3.72265625 C-1 1 -1 1 0 0 Z " fill="#7C8AEC" transform="translate(19,116)"/>
<path d="M0 0 C4.31392226 0.4793247 6.16569547 1.7457985 9 5 C5.7 4.01 2.4 3.02 -1 2 C-0.67 1.34 -0.34 0.68 0 0 Z " fill="#9775CF" transform="translate(332,81)"/>
<path d="M0 0 C3.35595828 0.59927826 5.37801226 1.84622436 8 4 C6.02 4 4.04 4 2 4 C1.34 2.68 0.68 1.36 0 0 Z " fill="#9B6FDE" transform="translate(328,81)"/>
<path d="M0 0 C0.99 0.495 0.99 0.495 2 1 C2 1.66 2 2.32 2 3 C3.32 3 4.64 3 6 3 C5.67 3.99 5.34 4.98 5 6 C3.68 5.67 2.36 5.34 1 5 C0.67 3.35 0.34 1.7 0 0 Z " fill="#BA7ADC" transform="translate(425,177)"/>
</svg>
