<svg id="svg" version="1.1" viewBox="0 0 300 300" width="300" height="300" xmlns="http://www.w3.org/2000/svg"><svg xmlns="http://www.w3.org/2000/svg"><defs><clipPath id="clip-1"><rect x="0" y="0" transform="scale(0.15,0.15)" width="2000" height="2000" fill="none"/></clipPath><linearGradient x1="149.3964" y1="250.8" x2="149.6973" y2="50.09175" gradientUnits="userSpaceOnUse" id="color-1"><stop offset="0" stop-color="#92641f"/><stop offset="1" stop-color="#b6883c"/></linearGradient><linearGradient x1="151.4385" y1="166.815" x2="151.872" y2="109.4802" gradientUnits="userSpaceOnUse" id="color-2"><stop offset="0" stop-color="#8c5e1e"/><stop offset="1" stop-color="#bb8d3d"/></linearGradient><linearGradient x1="88.57965" y1="176.01" x2="102.84705" y2="98.9898" gradientUnits="userSpaceOnUse" id="color-3"><stop offset="0" stop-color="#885a1c"/><stop offset="1" stop-color="#be9140"/></linearGradient><linearGradient x1="201.1305" y1="167.3715" x2="203.793" y2="104.67975" gradientUnits="userSpaceOnUse" id="color-4"><stop offset="0" stop-color="#8d5e1e"/><stop offset="1" stop-color="#be8f3e"/></linearGradient><linearGradient x1="174.927" y1="216.7695" x2="184.1145" y2="191.037" gradientUnits="userSpaceOnUse" id="color-5"><stop offset="0" stop-color="#8f5e19"/><stop offset="1" stop-color="#a6772c"/></linearGradient><linearGradient x1="153.3075" y1="221.214" x2="140.5608" y2="193.7865" gradientUnits="userSpaceOnUse" id="color-6"><stop offset="0" stop-color="#8c5a16"/><stop offset="1" stop-color="#a8782a"/></linearGradient><linearGradient x1="140.76345" y1="203.763" x2="139.36155" y2="202.7715" gradientUnits="userSpaceOnUse" id="color-7"><stop offset="0" stop-color="#18baa3"/><stop offset="1" stop-color="#27b2ba"/></linearGradient><linearGradient x1="122.1084" y1="220.929" x2="121.4832" y2="220.9635" gradientUnits="userSpaceOnUse" id="color-8"><stop offset="0" stop-color="#04b5a4"/><stop offset="1" stop-color="#06a3b1"/></linearGradient><linearGradient x1="75.07755" y1="164.397" x2="62.76375" y2="178.605" gradientUnits="userSpaceOnUse" id="color-9"><stop offset="0" stop-color="#34ccd5" stop-opacity="0.98824"/><stop offset="1" stop-color="#12b1ac"/></linearGradient></defs><g clip-path="url(#clip-1)" fill="none" fill-rule="nonzero" stroke="none" stroke-width="1" stroke-linecap="butt" stroke-linejoin="miter" stroke-miterlimit="10" stroke-dasharray="" stroke-dashoffset="0" font-family="none" font-weight="none" font-size="none" text-anchor="none" style="mix-blend-mode: normal"><path d="M143.3322,50.00865c0.3303,-0.01785 0.6609,-0.0327 0.9915,-0.0441c2.87895,-0.09495 9.0303,-0.1623 11.8443,0.04305c17.9055,1.30515 35.127,7.42395 49.8435,17.70945c6.396,4.5033 13.1655,10.43535 18.3015,16.38375c12.4305,14.39415 20.4885,32.04195 23.2215,50.86335c4.506,31.49235 -5.1105,61.87335 -27.0225,84.88935c-16.8,17.6475 -41.0865,29.8185 -65.5995,30.4965c-1.287,0.0345 -2.574,0.0855 -3.861,0.153c-0.4485,0.3405 -0.7515,0.627 -1.28685,0.8025c-0.48825,-0.0375 -0.7638,-0.393 -1.15005,-0.7395c-2.9997,-0.162 -6.9342,-0.222 -9.83325,-0.5535c-17.23395,-2.016 -33.6171,-8.5965 -47.457,-19.062c-3.8331,-2.868 -7.1292,-5.898 -10.54215,-9.2355c-16.7913,-16.4235 -26.2443,-36.477 -29.47215,-59.703c-3.4023,-26.3547 3.86715,-52.977 20.19165,-73.9458c13.8141,-17.7621 33.26505,-30.29025 55.15005,-35.5218c5.7801,-1.3659 10.85025,-1.7673 16.68045,-2.53575zM72.0381,179.148c1.1061,0.8985 3.19785,2.373 4.06725,3.2955c0.57645,1.56 0.4365,2.817 0.33045,4.482c-0.35385,-0.075 -0.5784,-0.2145 -0.909,-0.372c-0.2736,-1.4445 0.04275,-2.799 -1.08615,-3.8715c-1.3155,-1.524 -4.3827,-2.8335 -5.6595,-4.215c-2.1813,-2.358 -2.8116,-3.639 -5.47635,-5.61l-0.384,0.066c-0.21255,-0.3585 -0.07215,-0.2835 -0.3654,-0.381c-0.4752,0.3195 -0.60945,0.36 -1.1703,0.486c0.16335,-0.126 0.3216,-0.258 0.47475,-0.396c0.54105,-0.4875 1.1649,-1.3035 1.64505,-1.8495c3.3654,-3.8295 -1.24065,-3.1485 -0.92895,-7.62l0.0159,-0.204c0.21675,-0.174 0.39165,-0.315 0.618,-0.477c0.126,0.399 0.14355,0.477 0.44445,0.768c0.2217,0.6765 0.22035,0.8805 0.2859,1.605c0.97215,1.209 1.90695,2.1915 2.5005,3.6225c-0.6288,1.611 -1.12545,2.0805 -2.25825,3.4125c0.93255,0.729 2.6826,2.043 3.46695,2.8335c1.4532,1.464 1.32225,2.3235 3.2508,3.5865c-0.17625,-0.9225 -0.72345,-5.97 0.45735,-6.12c0.34665,0.2805 0.4947,0.546 0.51525,0.996c0.09705,2.115 -0.0906,3.816 0.1653,5.9625zM68.0973,197.655c1.36335,3.324 6.5631,10.209 8.86335,13.047c-0.61095,-3.7275 -0.8802,-7.3965 0.48195,-11.0115c1.31835,-3.498 4.1259,-6.672 7.4154,-8.4285c0.0978,-3.2625 0.168,-8.544 0.0363,-11.814c-0.95415,-0.4275 -1.9032,-0.7545 -2.2695,-1.8315c-0.40725,-1.2 -0.4026,-3.8145 0.22155,-4.923c0.22485,-0.399 0.5463,-0.7515 0.9966,-0.8805c1.50915,-0.4305 15.89595,-0.4395 16.8588,0.1455c0.56205,0.342 0.82515,1.227 0.8937,1.8345c0.0744,0.66 0.02955,1.356 0.01845,2.0175c6.732,0.003 13.4679,-0.1785 20.1951,-0.048c2.00415,0.039 5.58915,-0.168 7.3341,0.264c2.0427,1.9635 3.94725,4.197 5.98665,6.186c0.435,0.4245 0.5913,1.2375 0.4926,1.8405c-1.47195,0.153 -6.5736,-5.2155 -7.52265,-6.4755c-8.60445,-0.2595 -17.8263,-0.072 -26.49915,-0.1275c-0.537,0.744 -0.67365,1.008 -1.45095,1.494c-0.579,0.36 -1.21755,0.837 -1.2546,1.5615c-0.16005,3.1245 -0.09255,6.9555 0.0705,10.047c4.0338,2.169 7.5432,5.949 8.8557,10.404c1.2204,4.1865 0.7455,8.6835 -1.3221,12.522c-0.78735,1.4475 -1.79355,2.637 -2.8623,3.879c4.2972,3.0765 8.8341,5.9955 13.20285,8.976l16.97115,11.673c3.52785,2.433 7.0686,4.848 10.62225,7.2435c1.30875,0.8955 4.00155,2.874 5.3091,3.594c5.85585,-4.596 11.69835,-8.193 17.86785,-12.3165l19.704,-13.407c2.724,-1.833 6.201,-3.9465 8.775,-5.835c-0.5265,-0.6135 -1.938,-2.103 -2.3265,-2.796c-2.8875,-5.16 -3.474,-13.41 0.3615,-18.2445c0.654,-0.822 1.3845,-1.497 1.959,-2.2365c-1.2165,-0.8955 -3.3075,-2.6655 -4.431,-3.693c-0.453,0.4425 -1.062,0.9285 -1.5555,1.344c-0.4665,0.4455 -0.942,1.0935 -1.6095,0.8925l-0.063,-0.372c0.2085,-0.6735 0.6615,-1.0095 1.173,-1.5195c0.6495,-0.552 0.645,-0.384 0.8895,-1.077c-0.666,-0.147 -1.293,-0.321 -1.95,-0.4995c-2.5515,2.472 -2.3295,1.248 -5.3625,1.296l-0.2265,0.0045c-0.462,-1.623 -0.279,-2.802 -0.3615,-4.4625c-0.405,-0.246 -9.2265,0.0345 -10.9875,-0.3345l-0.2415,-0.0525c0.8775,0.7245 4.3695,3.471 4.347,4.5585c-1.0935,0.18 -4.83,-3.525 -5.763,-4.374c-0.6,2.2275 -0.438,4.728 -0.9945,6.444c-1.776,1.5345 -9.846,8.6595 -11.658,8.7345l-0.096,-0.1725c1.1085,-2.7285 8.664,-6.612 10.497,-9.3405c1.0875,-1.62 -0.258,-4.953 1.2165,-6.3435c0.69,-0.6495 12.84,-0.2865 14.748,-0.3015c3.978,-0.045 2.895,-0.381 5.574,-2.6445l0.1455,-0.1215c1.404,-0.0645 3.3075,-0.0135 4.749,-0.012c0.663,-0.009 1.2075,-0.09 1.791,0.1875c0.546,0.6735 0.333,1.2225 0.2175,2.034c0.0255,0.759 0.144,2.142 -0.0735,2.793c-2.712,0.6555 -2.271,0.2505 -4.008,-1.5435c-1.02,1.0455 -1.908,1.956 -2.856,3.075l3.2055,0.045c1.9245,-0.1725 3.3225,-0.2265 5.241,-0.0555c0.084,-2.643 -0.081,-5.295 0.0015,-7.911c-6.582,-0.072 -13.0455,0.009 -19.617,-0.0075c-2.382,-0.006 -7.596,0.06 -9.729,-0.249c-1.896,0.57 -3.3615,3.7035 -5.139,3.624c-0.4065,-0.3075 -0.2655,-0.111 -0.411,-0.624c0.2145,-0.966 5.889,-6.498 6.9645,-7.419c2.2605,-0.2025 5.3655,-0.165 7.674,-0.105c6.864,0.18 13.974,-0.231 20.811,0.015c-0.045,-1.3425 -0.1875,-2.766 0.702,-3.8265c0.441,-0.255 1.08,-0.3165 1.635,-0.342c3.735,-0.171 7.1175,0.0315 10.884,-0.168c5.3565,-0.285 6.693,0.15 5.937,6.006c-0.114,0.8865 -1.5195,1.614 -2.2605,2.0835c0.0045,2.9535 -0.189,8.9235 0.054,11.5635c1.0575,1.0275 2.172,1.7235 3.0915,2.637c3.0495,3.0285 4.881,7.536 5.0745,11.8005c0.0645,1.4505 -0.405,3.5475 -0.684,4.9965c1.3455,-2.151 2.658,-3.585 4.011,-5.559c1.5765,-2.298 3.201,-4.965 4.6935,-7.341c-2.115,-2.121 -4.9305,-4.6575 -6.8445,-6.843c-0.8325,-0.435 -1.029,-0.528 -1.7475,-1.1715c0.1935,-0.444 0.3345,-0.5385 0.6735,-0.8715c0.819,0.6375 1.101,0.8325 1.524,1.7625c0.663,-0.6675 1.257,-1.1145 1.9575,-1.716c4.011,-3.4455 8.5185,-6.3795 12.654,-9.606c0.378,-1.1745 1.065,-3.0315 1.149,-4.212c0.4485,-0.354 0.336,-0.885 0.3105,-1.392c1.263,-2.322 1.995,-8.6505 2.253,-11.376c0.2655,-2.8065 0.888,-6.0855 0.897,-8.856c0.0195,-5.93985 -0.4605,-12.8307 -1.311,-18.72135c-0.6105,-3.96615 -1.4955,-7.88565 -2.646,-11.73045c-7.065,-24.26745 -23.5125,-44.71785 -45.699,-56.8242c-5.0595,-2.74215 -10.59,-5.28795 -16.0905,-6.978c-9.2655,-2.84745 -19.1475,-4.91385 -28.87965,-4.61385c-2.6112,0.0804 -5.21535,0.0339 -7.82175,0.22755c-5.9286,0.63 -12.4167,1.64835 -18.1236,3.3522c-24.20865,6.9927 -44.6151,23.3769 -56.67345,45.50265c-10.2726,18.7971 -13.92765,40.50195 -10.37775,61.62645c0.3444,1.953 1.01265,6.975 1.8111,8.6565l0.1518,1.0185c0.3546,1.059 0.9057,3.5835 1.5174,4.17c1.3425,1.2885 3.60015,2.838 5.12895,3.9735c2.6874,1.9965 6.54765,5.4 9.2571,7.1025l0.6246,0.627c-1.2291,1.6155 -5.2527,5.28 -6.93045,6.876zM197.31,218.6415l-24.684,16.7295c-3.5805,2.4705 -7.1985,4.8855 -10.854,7.242c-1.6125,1.056 -3.1395,2.235 -4.821,3.1485c2.3535,-0.243 4.8585,-0.2265 7.1475,-0.7665c2.514,-0.591 5.1225,-1.0635 7.6155,-1.7235c12.912,-3.432 22.9455,-8.1525 33.657,-16.1685c2.6385,-1.9755 5.52,-3.9135 7.863,-6.321c-4.512,1.5735 -8.187,1.6245 -12.783,-0.303c-0.9165,-0.384 -2.466,-1.782 -3.141,-1.8375zM127.61145,243.1755c3.0339,0.9075 6.5439,1.47 9.68625,2.0925c1.269,0.2505 3.04305,0.2175 4.42845,0.459c-1.63305,-1.4085 -39.50805,-27.036 -39.45135,-27.0285c-6.2115,3.729 -8.9985,3.876 -15.95445,2.1825c12.2124,10.4595 25.41345,18.723 41.2911,22.2945zM238.098,182.3355c-1.719,1.572 -3.6195,2.8365 -5.454,4.257c-1.8885,1.4625 -3.7065,2.9115 -5.6325,4.3275c0.966,1.0365 1.965,2.0415 2.997,3.0135c0.699,0.669 1.392,1.344 2.079,2.025l0.1695,-0.0285c1.029,-1.713 5.9865,-12.0585 6.108,-13.4385zM98.1771,177.5955c0.19905,0.063 0.3555,0.093 0.56895,0.0705c0.39255,-0.039 0.6567,-0.201 0.8847,-0.5205c0.4974,-0.696 0.55425,-1.9815 0.3123,-2.778c-0.14955,-0.492 -0.39675,-0.8145 -0.864,-1.0515c-0.7461,-0.378 -13.5942,-0.171 -14.5575,0.177c-0.4755,0.579 -0.53565,3.183 -0.0681,3.864c0.47295,0.2955 0.5577,0.255 1.0884,0.234l0.1023,0.018c0.19665,0.24 0.7836,0.93 0.78735,1.2435c0.05085,4.1355 -0.02355,8.292 0.01695,12.432c0.01185,1.212 -1.5066,2.1 -2.4318,2.7735c-6.74505,4.9065 -7.73895,14.4555 -2.5698,20.9055c2.32365,2.844 5.6754,4.6545 9.32685,5.04c14.34375,1.4355 21.726,-16.2855 10.8168,-25.4715c-1.42275,-1.1985 -3.1383,-1.7415 -4.51815,-2.7735c0.05445,-2.3925 0.07305,-4.7835 0.0555,-7.176c-0.0276,-1.8225 -0.12255,-3.666 -0.015,-5.484c0.05265,-0.8895 0.25125,-1.1595 1.03755,-1.5135zM168.4515,179.9415c2.766,-0.8925 19.053,-0.2325 22.854,-0.333c1.1835,-0.0315 6.3015,-0.1275 7.599,-0.087c-0.198,2.037 -0.276,4.083 -0.2355,6.1275c0.033,1.2675 0.183,2.8155 0.174,4.0275c-2.2605,-0.054 -4.4265,-0.159 -6.684,-0.012c1.728,0.8145 3.4755,2.1855 4.545,3.7815c2.025,-1.2675 1.5015,-1.566 4.3545,-2.7555c0.2115,-3.054 0.132,-7.719 -0.0675,-10.752c-1.551,-1.1295 -1.4535,-0.735 -2.7375,-2.436c-1.872,0.1545 -4.734,-0.102 -6.744,-0.006c-4.62,0.219 -9.2775,0.132 -13.9005,0.2295c-2.085,0.0435 -5.0475,-0.336 -7.026,-0.066c-0.711,0.405 -1.7625,1.5495 -2.1315,2.2815zM186.114,189.5175c1.953,-1.5855 3.2475,-3.2175 5.121,-4.7805c0.2595,-0.216 0.903,-0.306 1.245,-0.3495c0.966,0.7665 1.5225,1.581 2.5905,1.8765c0.1185,-0.4605 0.132,-2.718 0.1485,-3.312c-0.2355,-0.093 -0.5775,-0.1155 -0.8415,-0.1515c-1.743,0.024 -4.458,-0.213 -5.604,1.197c-1.704,2.0985 -2.2455,1.872 -4.8975,1.6785l-0.198,0.1425c-0.2865,0.7125 0.162,2.5155 0.3285,3.3c0.7035,0.129 1.4055,0.2625 2.1075,0.399zM69.75735,193.701c0.89715,-0.879 1.8255,-1.8165 2.7522,-2.655c-1.122,-0.9825 -11.1363,-8.9175 -11.8662,-9.024c1.60515,3.7845 2.92635,7.569 4.9311,11.214c0.47385,0.8625 0.8934,1.9545 1.51905,2.6895c0.58755,-0.216 2.1516,-1.7475 2.66385,-2.2245zM213.603,192.3555c-0.084,-3.6255 0.018,-7.2405 -0.228,-10.8705c-0.189,-2.802 -0.1935,-3.2535 2.4855,-4.128c0.0165,-0.816 0.198,-3.0795 -0.213,-3.7065c-0.213,-0.3225 -1.6965,-0.3975 -2.145,-0.4005c-4.4415,-0.0225 -8.835,0.1095 -13.278,-0.114c-0.2895,0.732 -0.165,1.113 -0.348,1.905c-0.18,0.8055 -0.0945,1.152 0.297,1.8105c0.396,0.6615 2.472,1.2675 2.541,1.872c0.243,2.169 -0.1065,4.506 -0.1005,6.696c0.0045,1.833 0.0855,3.6135 0.0795,5.439c-0.009,0.531 -0.4545,0.963 -0.8415,1.2555c-1.05,0.792 -2.385,1.3215 -3.408,2.1345c-6.1155,4.863 -6.972,13.9095 -2.592,19.9575c2.2545,3.0645 5.6205,5.124 9.3765,5.7345c2.1975,0.345 5.628,0.072 7.575,-1.017c2.4255,-1.1985 4.371,-2.418 5.9775,-4.6695c4.461,-6.255 3.0795,-15.684 -3.102,-20.292c-0.693,-0.516 -1.3815,-1.0815 -2.076,-1.6065zM151.6995,52.8135c3.045,0.13935 6.336,0.24345 9.3465,0.6315c22.875,2.87865 43.9725,13.8201 59.5035,30.85845c14.238,15.6942 22.9605,35.60835 24.8415,56.7144c0.3135,3.6471 -0.1335,7.4988 0.072,11.08065c0.33,5.787 -0.2715,10.1295 -1.308,15.7965c-4.059,21.4485 -15.072,40.962 -31.338,55.5195c-10.749,9.6465 -23.538,16.7385 -37.4115,20.748c-6.2535,1.8405 -12.321,2.8665 -18.804,3.4605c-1.119,0.1035 -3.189,0.0825 -3.7515,1.221l0.1365,0.2025c17.805,-0.198 36.5505,-7.1265 51.066,-17.2035c2.0685,-1.4355 4.2105,-2.8275 6.165,-4.425c2.8815,-2.4945 6.0435,-5.385 8.7,-8.103c18.4005,-18.8055 28.572,-44.1525 28.2765,-70.46175c-0.2025,-26.31045 -10.956,-51.4389 -29.8485,-69.75105c-18.4575,-17.9448 -43.2315,-27.91005 -68.97375,-27.74415c-0.1707,0.00255 -0.3414,0.00615 -0.5121,0.0108c-6.6891,0.5058 -11.70795,0.76395 -18.31785,2.1009c-21.07275,4.47825 -40.06515,15.81945 -54.00225,32.2473c-16.8342,19.7403 -25.20855,45.3207 -23.30745,71.19495c2.05515,26.4945 14.4978,51.102 34.6167,68.463c13.8084,11.9595 30.6996,19.7985 48.74745,22.6215c2.0331,0.3135 9.37665,1.5225 10.81575,0.816c-0.80565,-1.179 -3.978,-1.305 -5.2629,-1.4445l-5.80155,-0.6555c-2.7186,-0.3285 -6.6942,-1.287 -9.3594,-1.977c-27.1863,-7.038 -51.10755,-27.468 -63.00945,-52.7835c-7.6776,-16.179 -10.80285,-34.143 -9.0402,-51.96435c1.776,-18.1989 7.8672,-33.9165 18.7353,-48.5817c6.174,-8.5053 13.76895,-15.88185 22.45065,-21.8052c12.85065,-8.77785 27.6216,-14.3409 43.0701,-16.22115c3.72345,-0.43965 9.8733,-0.60915 13.50495,-0.5661z" fill="url(#color-1)"/><path d="M153.42,109.8102c15.7245,0.93885 27.717,14.436 26.8005,30.16185c-0.918,15.72645 -14.397,27.73695 -30.1245,26.84295c-15.75825,-0.897 -27.7989,-14.4105 -26.88015,-30.16695c0.91875,-15.75675 14.4483,-27.7785 30.20415,-26.83785zM154.119,162.0315c5.4045,-0.903 8.2875,-3.135 11.0445,-7.9005c6.8535,-11.84895 3.6165,-28.8996 -7.383,-37.10985c-2.052,-1.52865 -5.3775,-2.56365 -7.97445,-2.3538c-3.8577,0.207 -6.3297,1.23555 -8.9142,4.20885c-4.4817,5.15595 -6.5346,12.7083 -6.1419,19.47105c0.3717,6.39975 4.2885,15.16425 9.04785,19.56225c2.4828,2.2935 6.9267,4.107 10.3212,4.122z" fill="url(#color-2)"/><path d="M75.41655,100.0404c4.2378,-0.1554 9.29475,0.0024 13.60995,-0.01755c4.67055,-0.036 9.3411,-0.0372 14.01165,-0.00375c2.2518,0.0156 7.0425,-0.07335 9.0852,0.51405c5.18205,1.5375 9.453,5.3631 12.14145,9.9783c3.6333,6.23685 2.14125,13.85655 -2.529,19.11495c-4.4931,5.0589 -11.5119,10.11195 -18.62025,9.70065c-0.94485,-0.0546 -3.21615,-0.01245 -3.69045,-0.91065c0.34815,-0.7503 4.57125,-2.69445 5.835,-3.5292c1.1805,-0.7782 2.27985,-1.6731 3.2817,-2.6709c3.95265,-3.93285 5.81745,-7.9491 5.75205,-13.47675c-0.06975,-5.90175 -2.9466,-10.4082 -8.6358,-12.19635c-3.81375,-1.19865 -6.91365,-0.94995 -10.78845,-0.8832c0.06945,2.1627 0.02325,4.48125 0.01545,6.6567c-0.10095,1.8156 -0.0108,4.7355 -0.00225,6.6012c0.0297,4.0974 0.03825,8.1948 0.02565,12.2922c-0.03645,5.65365 -0.0276,11.30745 0.0264,16.96095c0.01095,3.52095 -0.02895,7.10745 0.13365,10.61595c0.1221,3.8955 3.5115,5.112 6.63465,6.1425c0.77025,0.255 1.9005,0.45 1.89855,1.359c-0.89265,0.5175 -5.34435,0.573 -6.82155,0.861c-4.71915,0.882 -9.32085,1.7655 -13.84155,3.42c-1.3686,0.501 -7.065,4.0485 -7.7631,3.0525c0.09255,-2.484 6.28155,-8.16 7.3446,-11.1345c1.6131,-4.5165 1.21965,-8.2095 1.2171,-12.95115l-0.01905,-13.07715c0.00195,-9.2706 0.1083,-18.498 -0.1878,-27.76935c-0.19815,-6.1992 -7.59,-6.5958 -8.30565,-8.18475z" fill="url(#color-3)"/><path d="M218.214,104.92545c0.8715,0.4329 1.053,1.0335 1.1565,1.97025c0.558,5.0352 1.338,10.0197 1.9995,15.0402c0.1275,0.96525 0.5925,1.52655 0.3645,2.59035c-0.3225,0.3642 -0.1275,0.2553 -0.6075,0.3375c-1.7205,-0.74385 -5.0955,-6.9582 -7.356,-8.24085c-5.2995,-3.00555 -11.0745,-1.72635 -16.6875,-2.1309l0.0075,13.05465c0.0015,1.7817 0.1515,5.13045 -0.015,6.69975c2.6535,-0.13155 5.5575,0.28665 8.1855,-0.1932c2.886,-2.0766 4.4145,-6.6414 5.7,-7.1763l0.255,0.11145c0.252,0.48315 0.3555,0.99615 0.3585,1.674c0.033,6.7962 0.0225,13.71915 -0.141,20.4993c-0.006,0.23925 -0.1485,0.2514 -0.36,0.36525c-0.5325,-0.3459 -1.365,-1.64355 -1.6755,-2.2212c-4.2195,-7.83645 -4.194,-6.78435 -12.3195,-6.924c0.1125,4.35855 -0.054,8.8662 0.009,13.2333c0.0285,1.8735 -0.102,4.935 0.231,6.678c0.276,0.1125 0.141,0.084 0.477,0.093c2.9205,0.09 14.322,0.2535 16.3395,-0.4515c1.9935,-0.696 3.6225,-2.1855 5.1255,-3.6105c1.26,-1.236 5.5725,-5.8995 6.774,-6.58545c0.522,0.045 0.2835,-0.04845 0.702,0.36945c0.534,1.7685 -3.9585,14.4645 -4.9545,16.8105c-2.6055,0.1245 -41.199,0.1425 -41.9055,-0.1725l-0.0375,-0.3195c0.924,-1.317 3.447,-1.455 4.587,-2.946c2.1675,-2.838 1.7355,-7.467 1.734,-10.896l-0.003,-8.80365c-0.0015,-8.18535 0.1575,-16.31505 -0.432,-24.4779c-0.117,-1.6239 0.078,-3.2619 -0.048,-4.9827c-1.776,-2.43585 -4.5465,-3.7491 -7.0605,-5.32395l-0.0315,-0.29205c0.2715,-0.27825 0.354,-0.3786 0.834,-0.40065c3.339,-0.1539 6.732,-0.04845 10.056,-0.03615c5.7645,0.02415 11.529,0.00945 17.2935,-0.04425c1.9185,0.00105 4.11,0.1464 5.9895,0.0429c1.8015,-0.0993 3.9915,-2.27625 5.4555,-3.34065z" fill="url(#color-4)"/><path d="M172.482,193.4505c-0.6015,-0.6885 -2.313,-2.1675 -2.466,-2.4165c0.3135,-0.699 4.3065,-0.5205 5.1465,-0.4695c3.6045,0.2205 7.743,-0.5805 11.079,1.029c3.7125,1.7895 4.128,6.822 1.077,9.3645c-0.48,0.408 -1.9305,1.128 -1.989,1.332c2.049,0.549 4.2285,1.8405 5.25,3.7485c0.84,1.5345 1.026,3.342 0.516,5.0145c-1.8465,5.9505 -8.8425,5.454 -13.7715,5.2095c-0.477,-0.1245 -0.9075,-0.048 -1.4055,-0.009c-1.3365,0.0045 -3.9585,0.102 -5.2785,-0.249c-0.18,-0.048 -0.162,-0.2745 -0.222,-0.54l0.7485,-0.249c0.552,-0.3045 0.9195,-0.537 1.113,-1.1775c0.4995,-1.6515 0.372,-17.9445 0.2025,-20.5875zM177.615,213.6255c2.376,0.027 4.893,0.384 6.786,-1.086c1.6335,-2.085 1.6755,-5.5965 -0.465,-7.4625c-1.2555,-1.095 -4.506,-0.6915 -6.3645,-1.2975c-0.0345,3.282 -0.021,6.564 0.0435,9.846zM177.6075,201.1275c2.4885,0.0525 3.5835,0.387 5.508,-1.2285c0.939,-1.0965 1.311,-1.842 1.173,-3.318c-0.321,-3.417 -4.1415,-3.5205 -6.7155,-3.4545c-0.21,0.66 0.012,6.936 0.0345,8.001z" fill="url(#color-5)"/><path d="M148.7328,191.4795l0.6303,-0.0735l5.7204,0.003c-0.6735,0.5355 -1.6755,1.218 -2.0445,1.944c0.108,0.9045 7.2795,15.5325 7.9395,16.356l0.2385,0.3705c0.9885,3.789 3.4665,4.347 5.4675,6.171c-1.449,0.0225 -10.9515,0.267 -11.6265,-0.1245c0.153,-0.7815 1.533,-1.488 1.563,-1.884c0.0765,-1.008 -2.43,-6.63 -3.222,-6.6615c-3.0345,-0.1215 -6.25065,-0.174 -9.3024,-0.1335c-0.7932,2.0505 -1.8684,4.5015 -2.5527,6.522c0.77775,0.9435 1.3821,1.479 2.29365,2.313c-1.03215,0.078 -7.92795,0.267 -8.49975,-0.0165l-0.04395,-0.2505c0.6639,-0.936 1.53675,-1.131 2.36175,-2.205l0.4389,-0.663c1.86345,-3.471 3.4077,-7.4205 5.0232,-11.019c1.22385,-2.727 2.37975,-5.4765 3.5202,-8.238c-0.82215,-1.338 -1.2234,-1.5375 -2.4723,-2.478c1.4733,-0.012 3.084,0.0435 4.5672,0.0675zM145.53105,204.6045c1.30155,-0.051 2.6037,-0.084 3.9063,-0.0975c0.82665,-0.0555 1.65465,-0.1035 2.48415,-0.1425c0.033,-0.6345 -2.76225,-7.098 -3.27765,-7.494c-0.49485,2.0595 -2.34225,5.3265 -3.1128,7.734z" fill="url(#color-6)"/><path d="M122.2014,181.359c2.08215,-2.2185 4.3497,-1.779 6.33945,0.318c0.30075,0.3165 0.597,0.636 0.8889,0.9615c0.0876,2.379 -0.10215,5.1735 0.1143,7.416c1.1427,1.011 11.78745,10.086 12.2352,10.215c0.5604,-0.192 0.5043,-0.2745 0.97575,-0.15c0.5415,1.524 -3.1173,3.441 -3.3507,4.923c-0.14625,0.9285 -0.2043,1.347 -0.21435,2.304c0.04545,1.053 0.00645,2.055 -0.0237,3.108c-5.3985,-3.456 -2.61105,-3.711 -5.64315,-7.395c-1.18395,-1.4385 -6.1419,-5.2905 -7.73925,-6.867c-1.21605,-1.2 -2.22555,-1.6515 -3.3417,-3.366c-0.07665,-1.95 -0.3951,-6.981 -0.1302,-8.6625c-1.04835,0.7815 -1.5444,1.0305 -2.7285,1.6245c0.00345,0.8955 0.05805,1.5675 -0.31965,2.3715l-0.2226,0.0675c-0.50565,-0.5595 -0.54195,-1.641 -0.6501,-2.424c-3.91275,0.003 -7.8387,-0.255 -11.76615,-0.0405c-0.57375,0.0315 -0.99885,-0.0825 -1.02495,-0.675c0.2496,-0.249 0.26775,-0.3435 0.65925,-0.4335c2.25525,-0.525 15.6858,1.275 15.65805,-1.995l-0.23025,-0.1935c-3.0624,-0.117 -11.68155,-0.4575 -14.15355,0.36c-0.0003,-0.0015 -0.1101,-0.408 -0.11085,-0.408c-0.1632,-0.225 0.16755,-0.552 0.3864,-0.87c0.60285,-0.456 12.61875,-0.198 14.39235,-0.189zM138.1587,207.717c0.0093,-1.305 -0.0372,-2.682 0.21195,-3.9555c0.64095,-0.771 1.47135,-1.5255 2.3292,-2.046l0.14925,-0.489c-0.2778,-0.378 -2.157,-1.911 -2.60205,-2.283l-6.59955,-5.4825c-0.77055,-0.6495 -2.63085,-2.1765 -3.23265,-2.865c-0.0513,-2.091 0.0297,-6.0255 -0.3816,-7.8615c-0.552,-0.495 -1.16685,-1.071 -1.7286,-1.542c-0.97125,-0.0015 -2.24325,-0.168 -2.9295,0.48c-0.1425,0.849 0.04065,9.5745 0.12405,10.764c2.5125,2.514 10.656,8.9355 11.89065,11.214c0.6024,1.1115 1.3275,4.1775 2.64375,4.419z" fill="#1eb3b0"/><path d="M141.77925,200.2695c0.5604,-0.192 0.5043,-0.2745 0.97575,-0.15c0.5415,1.524 -3.1173,3.441 -3.3507,4.923c-0.14625,0.9285 -0.2043,1.347 -0.21435,2.304l-0.24375,0.168l-0.17565,-0.129c0.06675,-0.3225 0.00735,-0.3795 0.1758,-0.4965l-0.315,0.606l-0.07095,-0.3285c-0.2073,0.2325 -0.2388,0.2835 -0.4017,0.5505c0.0093,-1.305 -0.0372,-2.682 0.21195,-3.9555c0.64095,-0.771 1.47135,-1.5255 2.3292,-2.046l0.23175,-0.063c0.49275,-0.375 0.59955,-0.804 0.84765,-1.383z" fill="url(#color-7)"/><path d="M108.6819,188.8155c1.8759,0.483 10.0797,-0.078 10.68285,0.3075c0.30255,0.9315 -2.0358,2.412 -2.7063,3.1245c-0.20055,2.2485 -0.1431,5.3295 -0.1446,7.644l0.02025,12.945c7.17255,0.0495 8.68365,1.323 14.0931,-4.074c0.1182,-0.1185 0.2337,-0.2385 0.3465,-0.3615l0.43575,-0.606c0.6663,0.57 0.7068,0.993 0.48045,1.854c-0.61395,2.337 -1.1925,4.641 -2.37735,6.75c-1.5282,0.2175 -6.0159,0.045 -6.69795,0.2505l-0.6765,0.3225c-0.15825,-0.1335 -0.47355,-0.3075 -0.6627,-0.4215c-1.1286,0.0915 -3.20835,0.0225 -4.45335,0.0255l-9.05685,0.0165c0.8763,-0.7665 1.75905,-1.5255 2.64795,-2.2785c0.1917,-0.5955 0.3285,-1.2975 0.34095,-1.926c0.1245,-5.9655 0.11655,-11.94 0.08565,-17.9055c-0.01395,-2.703 -0.10245,-3.558 -2.7168,-4.9785z" fill="#976722"/><path d="M152.4165,69.3075c0.4125,0.0192 0.399,0.0384 0.7815,0.21165c0.4395,0.75495 0.1245,22.44495 0.2955,25.3512c0.9915,1.73505 3.0405,2.20185 3.357,3.3789l-0.144,0.20355c-0.7245,0.2145 -12.35385,0.32655 -13.0176,0.12c-0.23985,-0.47595 -0.1716,-0.21315 -0.0723,-0.84075c1.10145,-0.63345 2.61285,-1.65405 3.5205,-2.52885c-0.027,-6.03405 -0.10995,-12.56265 0.00015,-18.57135c-0.6102,0.25215 -1.2225,0.4992 -1.8369,0.74085c-0.6861,0.2661 -1.7748,0.6786 -2.4768,0.3684c-0.68985,-1.5483 7.90845,-7.6872 9.59295,-8.4336z" fill="#be9041"/><path d="M155.2755,229.536c0.099,-2.9835 -0.0585,-5.9565 0.1485,-8.9145c0.0735,-1.053 0.7515,-1.716 1.455,-2.3895c0.687,-0.6585 0.8985,-1.5045 1.986,-1.2195c0.3615,1.032 -1.872,2.5575 -2.3475,3.4335c-0.1275,0.237 -0.201,1.5495 -0.222,1.872l-0.285,-0.129l0.0825,0.1545l-0.03,0.1485c-0.1515,0.7545 -0.1725,0.684 0.03,1.389c0.4725,1.6515 -0.5025,4.0335 -0.1785,5.7105c0.0405,0.2145 0.006,0.411 -0.024,0.609l0.1155,0.234c-1.986,2.0325 -4.1475,4.011 -5.9115,6.219c-0.24525,0.3075 -0.3633,1.5795 -0.042,1.9635c0.4395,-0.1695 4.6395,-4.0545 5.4495,-4.7595l0.5175,0.204l0.1095,0.2835c-0.183,0.411 -0.2085,0.252 -0.132,0.5805c-1.2405,1.383 -4.8585,4.656 -6.3027,5.8935c-2.1582,-1.029 -5.103,-4.5315 -7.1103,-6.1335c-1.58835,-1.2675 -3.3177,-2.913 -4.80105,-4.3185c-0.87735,-0.831 -0.1716,-1.494 -1.4673,-2.472l0.3627,-0.21c0.408,0.207 0.5148,0.4365 0.7776,0.8115c0.3921,0.0915 0.243,0.1395 0.5001,-0.018c0.1026,-0.357 0.17445,-0.7575 0.25155,-1.1265l0.0675,0.7215c0.15045,1.6635 1.48575,2.412 2.65275,3.5355c2.5926,2.4945 5.4141,4.779 7.962,7.3185c-0.0651,-0.777 -0.0705,-1.5375 -0.08655,-2.316c-1.731,-2.2605 -5.09715,-4.7685 -6.59145,-6.933c-0.0327,-2.7045 0.3645,-6.498 -0.1824,-9.1755c-0.1671,-0.8175 -2.7057,-1.7385 -2.05545,-3.264l0.22995,-0.066c1.0323,0.3765 2.2461,1.941 3.0201,2.8245c0.2439,2.733 -0.2652,7.017 0.30615,9.573c1.7478,1.773 3.5142,3.528 5.2989,5.2635c-0.1404,-1.2285 -0.033,-3.4005 -0.06405,-4.7895c-0.75975,-1.0455 -1.683,-1.884 -2.6085,-2.7825c1.107,-1.656 2.5035,-2.595 2.5743,-4.4145c0.12195,0.642 0.1026,0.741 0.4971,1.227l0.2727,0.042c0.2148,-0.2415 0.16245,-0.135 0.26025,-0.435c0.5676,2.5815 4.5936,1.9005 0.5076,5.889c-0.47565,0.465 -0.46455,2.205 -0.43875,2.8845c0.03135,0.825 -0.0102,1.788 -0.06285,2.685c0.9006,-0.783 1.5306,-1.4505 2.1846,-2.4405l-0.3495,-1.719c2.175,0.69 2.142,0.2595 3.6735,-1.4445zM149.47125,228.585c0.49245,-0.4395 1.05675,-0.9195 1.52025,-1.38c-0.6,-0.804 -0.951,-1.5435 -1.99515,-1.6875c-1.35165,1.194 -1.40385,2.199 0.2859,3.075z" fill="#1eb3b0"/><path d="M149.4189,172.698c3.2856,2.343 6.0351,5.9385 9.0861,8.6175c0.8775,0.771 2.772,2.4195 2.9295,3.5655l-0.1725,0.093c-2.205,-0.813 -5.3895,-4.698 -7.2135,-6.363c-1.158,-1.056 -2.9325,-2.673 -3.96,-3.7905c-0.183,1.1715 -0.20835,13.344 0.066,13.851c0.657,0.036 1.4835,-1.386 2.2845,-1.7865l0.285,0.0675c0.3825,0.8415 -0.15,1.299 -0.783,1.8735c-0.951,0.8625 -1.7355,1.602 -2.5779,2.58l-0.6303,0.0735c0.171,-1.3575 0.1215,-2.85 0.09735,-4.23c-0.0711,-4.0635 0.0267,-8.145 -0.0369,-12.2055c-1.9959,1.4925 -9.63945,9.915 -11.10255,9.7395c-0.23745,-0.381 -0.1536,-0.168 -0.08895,-0.726c2.9025,-3.066 6.0993,-6.2115 9.2154,-9.0585c0.5598,-0.513 2.07015,-1.9155 2.60175,-2.301z" fill="#1eb3b0"/><path d="M121.57035,225.2505l0.18105,-0.0075c0.3051,-0.3105 0.2145,-0.1695 0.34815,-0.609l0.20205,-0.669c0.0816,0.429 0.0606,0.789 0.48555,1.017c0.9789,0.525 2.2722,0.6225 3.3714,0.8685c2.92605,0.657 4.61865,2.3175 6.9072,4.119c2.2641,1.782 4.63365,3.8115 7.0329,5.439c2.2395,-0.741 2.43765,0.255 2.4549,2.214c1.0449,1.0125 5.97765,5.16 7.12635,5.6985c1.1211,-1.275 7.2711,-6.381 8.8176,-7.503l0.2835,0.333c-0.1995,0.576 -0.4335,0.807 -0.5295,1.4205c-0.3495,0.1635 -2.541,2.1225 -3,2.5005c-1.6635,1.371 -3.3945,2.7315 -5.049,4.113l-0.0135,0.2655c-0.045,0.807 0.0225,1.3725 -0.5742,1.9065l-0.2838,-0.1425c-0.3921,-0.591 -0.4149,-1.1265 -0.5373,-1.8345c-2.29305,-2.0415 -5.01045,-4.005 -7.3743,-6.006c-1.1163,-0.8235 -2.1372,-2.235 -3.2433,-3.015c-3.09165,-2.178 -6.6948,-5.505 -9.8478,-7.437c-1.4379,-0.882 -5.09745,-1.671 -6.87075,-2.445z" fill="#1eb3b0"/><path d="M119.8989,199.6425c0.5646,3.546 3.41085,5.355 5.63055,7.9485c0.55245,0.645 1.94895,1.794 1.61805,2.748c-0.87915,-0.087 -4.1991,-4.095 -5.14905,-4.95c-3.8505,-3.4605 -3.47295,-7.0005 -3.2853,-11.7405c0.0381,-0.96 -0.3072,-2.0925 0.4848,-2.6685l0.26565,0.147c0.4974,1.173 0.28635,5.367 0.3375,7.0065c4.02345,3.243 7.68795,6.351 11.60835,9.6615l-0.43575,0.606c-1.6062,-0.5865 -9.0897,-7.191 -11.0748,-8.7585z" fill="#1eb3b0"/><path d="M175.9185,216.2535c0.498,-0.039 0.9285,-0.1155 1.4055,0.009c0.3165,2.166 -0.1935,6.942 0.2085,8.574c-0.4905,-0.1245 -0.546,-0.1845 -1.0365,-0.0495c-0.153,-1.932 -0.042,-4.9905 -0.042,-7.0155c-2.1555,1.56 -3.453,2.7615 -5.547,4.4415c-2.5035,2.007 -6.117,3.9975 -8.6055,6.0975c-0.4665,0.3945 -0.21,1.2 -1.0245,2.199c-0.4935,-0.603 -0.5475,-0.6795 -0.618,-1.428l0.171,-1.1835c0.4785,-0.7395 0.3525,-1.416 0.3735,-2.3895l0.159,0.4005l0.48,-0.003c0.0525,0.435 0.0405,0.4125 0.2415,0.7995c1.5405,-0.657 12.576,-9.1695 13.8345,-10.452z" fill="#1eb3b0"/><path d="M176.496,224.787c0.4905,-0.135 0.546,-0.075 1.0365,0.0495c-0.273,1.0605 -0.54,0.9645 -1.548,1.3245l-0.1815,0.078c-1.7595,0.741 -4.2435,1.074 -5.76,1.863c-0.141,0.0735 -3.483,2.8605 -3.5985,2.9715c-0.693,0.669 -7.3305,5.6595 -7.5015,5.916c-0.294,0.291 -0.3705,0.315 -0.534,0.6855l-0.1575,-0.1035c0.096,-0.6135 0.33,-0.8445 0.5295,-1.4205l-0.2835,-0.333c2.463,-1.926 4.914,-3.867 7.3545,-5.8215c2.5485,-2.046 4.3155,-3.78 7.7805,-4.215c0.765,-0.2055 2.34,-0.5235 2.8635,-0.9945z" fill="#28b0b1"/><path d="M122.1381,216.972l0.6765,-0.3225c1.15215,0.519 13.2183,9.3765 13.92495,10.2495l-0.2748,0.1065c0.4692,0.21 0.78075,0.0975 1.2951,0.015c0.35505,0.354 0.2403,0.966 0.1962,1.458c-0.2571,0.1575 -0.108,0.1095 -0.5001,0.018c-0.2628,-0.375 -0.3696,-0.6045 -0.7776,-0.8115l-0.3627,0.21c-1.31415,-0.3285 -12.56265,-9.321 -13.99515,-10.701z" fill="#1eb3b0"/><path d="M132.02295,218.457c-0.2835,-1.188 -0.62895,-4.0455 -0.16965,-5.154l0.21915,-0.0585c1.1025,0.9195 0.7812,3.153 0.98385,4.6095l0.0282,0.1935c1.02495,0.504 3.2244,2.295 4.0041,3.15c-0.0885,-1.0305 -0.0735,-1.446 -0.00435,-2.4795c0.05295,-0.864 0.3255,-1.9665 0.69555,-2.7525c0.75915,3.6705 0.0699,7.6815 0.4278,11.3865c-0.0771,0.369 -0.14895,0.7695 -0.25155,1.1265c0.0441,-0.492 0.15885,-1.104 -0.1962,-1.458c-0.51435,0.0825 -0.8259,0.195 -1.2951,-0.015l0.2748,-0.1065l0.27795,-0.1605l0.0348,-0.369c-0.0879,-0.4485 -0.12915,-3.024 -0.15825,-3.6795c-0.88425,-1.1025 -3.6057,-3.0825 -4.8711,-4.233z" fill="#1eb3b0"/><path d="M137.08425,218.718c0.05295,-0.864 0.3255,-1.9665 0.69555,-2.7525c0.75915,3.6705 0.0699,7.6815 0.4278,11.3865c-0.0771,0.369 -0.14895,0.7695 -0.25155,1.1265c0.0441,-0.492 0.15885,-1.104 -0.1962,-1.458c-0.51435,0.0825 -0.8259,0.195 -1.2951,-0.015l0.2748,-0.1065l0.27795,-0.1605l0.0348,-0.369c0.4314,-1.566 0.6675,-3.18 0.70275,-4.8045c0.01065,-0.6405 -0.0102,-2.601 -0.41325,-3.021z" fill="#28b0b1"/><path d="M160.83,227.898c0.0345,-1.536 -0.3555,-10.812 0.639,-11.1585c0.519,0.5505 0.432,3.015 0.4545,3.9135c0.8325,-0.813 3.3045,-2.9145 4.4325,-3.3645c0.3495,-0.138 0.5205,0.027 0.753,0.195l-0.0195,0.3c-0.8265,0.984 -3.978,3.4875 -5.1225,4.1745c-0.264,1.374 -0.0615,2.5935 -0.1245,3.948l-0.48,0.003l-0.159,-0.4005c-0.021,0.9735 0.105,1.65 -0.3735,2.3895z" fill="#28b0b1"/><path d="M161.3625,225.909c0.0945,-1.0935 -0.441,-3.5205 0.6045,-3.951c-0.264,1.374 -0.0615,2.5935 -0.1245,3.948z" fill="#25b8af"/><path d="M100.9083,181.857c0.32685,-0.342 0.50655,-0.759 0.4851,-1.233l0.11655,0.1365l-0.09465,-0.081c0.04095,0.324 0.0528,0.39 0.25725,0.645l0.0414,0.261c0.1647,1.1025 0.03795,6.1725 0.2937,6.5895c1.443,0.3585 4.78605,0.285 6.67425,0.6405l-0.35895,0.6885c-2.38275,-0.138 -4.79985,0.2295 -7.3986,0.006c-0.20265,-1.9485 -0.1071,-5.664 -0.01605,-7.653z" fill="#25b8af"/><path d="M171.8805,204.003l0.15,0.132c0.0795,0.237 0.1575,0.309 0.0435,0.525c-0.8145,1.533 -7.7235,6.9 -8.967,7.548c-0.318,-0.2775 -0.2265,-0.108 -0.2895,-0.5235c0.81,-1.3095 7.551,-6.963 9.063,-7.6815z" fill="#28b0b1"/><path d="M148.96005,215.5005c-1.0989,-1.029 -2.4174,-2.181 -3.315,-3.3765c-0.46305,-0.618 -1.32,-2.9805 -0.37905,-3.468c1.2849,1.2405 1.2909,4.3215 3.9945,5.304c0.6354,-0.09 0.4671,-0.093 1.047,-0.558c0.636,0.315 0.417,0.081 0.7065,0.6975c-0.684,0.759 -1.16085,0.945 -2.05395,1.401z" fill="#1eb3b0"/><path d="M149.6667,217.3335c1.5843,-1.71 3.4908,-3.9825 5.4663,-5.109l0.279,0.009c0.453,0.7095 -0.3075,1.368 -0.8445,1.899c-1.344,1.326 -2.7795,2.5635 -4.1445,3.87z" fill="#25b8af"/><path d="M160.659,229.0815c0.0705,0.7485 0.1245,0.825 0.618,1.428c-1.1505,0.8745 -4.44,3.993 -5.28,4.416c-0.0765,-0.3285 -0.051,-0.1695 0.132,-0.5805l-0.1095,-0.2835l-0.5175,-0.204c1.5135,-1.5165 3.909,-3.3135 5.157,-4.776z" fill="#28b0b1"/><path d="M105.14085,180.8235c0.52305,0.522 0.87135,1.0095 1.56405,1.152c0.54915,-0.081 0.6345,-0.159 1.10415,-0.4275c-0.21885,0.318 -0.5496,0.645 -0.3864,0.87c0.00075,0 0.11055,0.4065 0.11085,0.408c-0.6771,0.627 -1.3374,1.0305 -1.9593,1.782c-0.56235,0.681 -1.04835,1.155 -1.96965,1.0095l-0.09255,-0.2235c0.3327,-0.813 1.4652,-1.803 2.1258,-2.4555c-0.51885,-0.489 -0.98505,-1.008 -1.4691,-1.53z" fill="#25b8af"/><path d="M121.4754,216.5505c0.18915,0.114 0.50445,0.288 0.6627,0.4215l0.1824,0.222c0.00165,1.161 0.1062,5.856 -0.0189,6.771l-0.20205,0.669c-0.13365,0.4395 -0.04305,0.2985 -0.34815,0.609l-0.18105,0.0075l-0.1128,0.2265c-0.24045,-0.7935 -0.1107,-6.141 -0.0954,-7.134c-0.07485,-0.783 -0.01995,-1.008 0.11325,-1.7925z" fill="url(#color-8)"/><path d="M121.36215,218.343l0.3276,0.261c0.3378,3.075 -0.1734,3.9075 -0.1194,6.6465l-0.1128,0.2265c-0.24045,-0.7935 -0.1107,-6.141 -0.0954,-7.134z" fill="#1eb3b0"/><path d="M149.07945,217.5855l0.58725,-0.252l0.7563,0.669c-1.1502,1.746 -0.4473,3.543 -0.6621,5.679c-0.0978,0.3 -0.04545,0.1935 -0.26025,0.435l-0.2727,-0.042c-0.3945,-0.486 -0.37515,-0.585 -0.4971,-1.227c-0.2568,-1.6155 0.2514,-2.592 -0.42345,-4.6305c0.1539,-0.285 0.4896,-0.495 0.77205,-0.6315z" fill="#28b0b1"/><path d="M160.9785,209.709c-0.0105,-1.9845 -0.345,-8.1165 0.069,-9.492l0.1875,0.0075c0.654,1.5075 0.873,8.6715 -0.018,9.855z" fill="#28b0b1"/><path d="M137.6556,213.81c-0.978,-0.4125 -4.81455,-3.321 -4.8516,-4.473l0.2346,-0.129c1.1502,0.261 4.21215,3.027 5.0559,3.939z" fill="#1eb3b0"/><path d="M151.587,211.9395l0.12,-0.2685l0.243,-0.5415c0.495,-1.089 0.369,-2.3355 1.1565,-2.931c1.1565,1.152 -0.399,4.149 -1.377,5.2035l-0.7155,0.6975c-0.2895,-0.6165 -0.0705,-0.3825 -0.7065,-0.6975c0.4215,-0.492 0.8475,-0.9795 1.2795,-1.4625z" fill="#28b0b1"/><path d="M150.3075,213.402c0.4215,-0.492 0.8475,-0.9795 1.2795,-1.4625c-0.1605,0.381 -0.282,0.5805 -0.27,0.996l0.4125,0.4665l-0.7155,0.6975c-0.2895,-0.6165 -0.0705,-0.3825 -0.7065,-0.6975z" fill="#25b8af"/><path d="M144.97695,214.977c0.17655,-0.162 0.3639,-0.315 0.54705,-0.468c0.3,0.1545 0.48,0.2115 0.8094,0.2865c0.6678,0.6705 2.15445,2.343 2.74605,2.79c-0.28245,0.1365 -0.61815,0.3465 -0.77205,0.6315c-0.1506,-0.069 -2.9685,-2.895 -3.33045,-3.24z" fill="#1eb3b0"/><path d="M100.9083,181.857c-0.01005,-0.7095 -0.0714,-1.245 0.1416,-1.9185c0.7608,-0.5775 3.3324,0.096 4.09095,0.885l-0.97215,0.585c-0.76575,-0.4335 -1.3932,-0.552 -2.26605,-0.4305l-0.2301,0.3465c-0.20445,-0.255 -0.2163,-0.321 -0.25725,-0.645l0.09465,0.081l-0.11655,-0.1365c0.02145,0.474 -0.15825,0.891 -0.4851,1.233z" fill="#1eb3b0"/><path d="M170.418,215.4645c0.003,-1.0725 -0.483,-3.039 0.6285,-3.8775c1.041,0.4185 0.396,2.805 0.12,3.6285z" fill="#1eb3b0"/><path d="M144.97695,214.977c-0.71985,-0.702 -1.9119,-1.716 -2.03175,-2.7105l0.20025,-0.165c1.20135,0.222 2.40945,1.764 3.18795,2.694c-0.3294,-0.075 -0.5094,-0.132 -0.8094,-0.2865c-0.18315,0.153 -0.3705,0.306 -0.54705,0.468z" fill="#28b0b1"/><path d="M235.026,148.2279c1.6905,0.30675 1.5075,1.64655 0.2145,2.3661c-0.8445,-0.3765 -1.344,-0.7932 -1.191,-1.7781c0.4275,-0.50565 0.2715,-0.3453 0.9765,-0.588z" fill="#25b8af"/><path d="M63.8313,148.81035c1.55325,0.3114 1.60725,1.57215 0.2028,2.28015c-0.81435,-0.2445 -1.29615,-0.5115 -1.1877,-1.44495c0.3003,-0.49185 0.4905,-0.5484 0.9849,-0.8352z" fill="#25b8af"/><path d="M70.1547,166.773c0.4884,0.078 0.4746,0.051 0.885,0.3135c0.4995,0.972 0.1224,1.5225 -0.70275,2.133c-1.12245,-0.576 -1.35915,-1.6875 -0.18225,-2.4465z" fill="#28b0b1"/><path d="M124.26285,197.3805c0.60705,0.0045 0.6618,-0.018 1.1868,0.246c0.36465,0.474 0.27195,0.2145 0.303,0.798c-0.20985,0.549 -0.31155,0.5835 -0.7803,0.9795c-0.7512,-0.1845 -1.1724,-0.3675 -1.32135,-1.1955c0.2034,-0.651 0.0276,-0.3705 0.61185,-0.828z" fill="#25b8af"/><path d="M122.7135,195.2025c1.4763,0.2865 1.0353,1.527 0.3516,2.3595c-0.7809,-0.225 -1.01445,-0.2775 -1.17495,-1.104c0.15915,-0.6645 0.31935,-0.744 0.82335,-1.2555z" fill="#1eb3b0"/><path d="M156.006,230.4345l-0.1155,-0.234c0.03,-0.198 0.0645,-0.3945 0.024,-0.609c-0.324,-1.677 0.651,-4.059 0.1785,-5.7105c-0.2025,-0.705 -0.1815,-0.6345 -0.03,-1.389l0.03,-0.1485l-0.0825,-0.1545l0.285,0.129c0.066,1.2825 0.3915,7.422 -0.2895,8.1165z" fill-opacity="0.98039" fill="#28b0b1"/><path d="M229.794,170.7975c1.2345,0.585 0.8445,1.8075 -0.1005,2.493c-1.134,-0.969 -1.104,-1.5975 0.1005,-2.493z" fill="#25b8af"/><path d="M224.526,168.051c1.2285,0.5625 1.077,1.512 0.2685,2.364c-0.6975,-0.324 -0.951,-0.333 -1.0995,-1.1115c0.171,-0.606 0.3945,-0.768 0.831,-1.2525z" fill="#1eb3b0"/><path d="M126.357,199.266l0.441,0.141c0.6897,0.7605 0.4266,1.3965 -0.12405,2.133c-0.4206,-0.2685 -0.76155,-0.5985 -0.8994,-1.083c0.02715,-0.585 0.21765,-0.7275 0.58245,-1.191z" fill="#25b8af"/><path d="M158.943,236.9895c0.6045,0.192 0.7395,0.183 1.128,0.6435c0.1335,0.5685 0.1575,0.3015 -0.063,0.831c-0.4845,0.324 -0.225,0.243 -0.8085,0.249c-0.528,-0.3165 -0.5655,-0.336 -0.7905,-1.038c0.1635,-0.3705 0.24,-0.3945 0.534,-0.6855z" fill="#25b8af"/><path d="M207.315,189.759l0.0915,0.7095c0.3975,0.054 0.216,0.033 0.7035,-0.2835c-0.36,1.278 -0.222,9.456 0.513,10.4595c1.551,-0.6315 -1.269,-7.065 3.999,-3.9075c0.1335,0.801 0.285,1.5975 0.4545,2.391c0.924,0.1365 1.995,0.3 2.841,0.705c0.5865,0.5805 0.855,1.434 1.0605,2.2215c0.2025,1.7505 0.303,3.327 0.06,5.085c-0.3135,-0.4755 -0.2805,-0.6945 -0.6345,-1.2135l-0.2175,0.234c-0.219,-0.591 -0.0825,-0.513 -0.5085,-0.747c-1.3065,0.0975 -2.211,2.5485 -4.1175,3.405c-0.258,4.4895 -4.401,6.855 -7.7415,3.3585c-1.3695,-1.4325 -0.375,-3.0855 -2.4735,-3.858c0.351,-0.447 0.3285,-0.474 0.4845,-1.0005c0.1875,0.075 0.765,0.3315 0.9165,0.171c1.0695,-1.143 1.6125,-2.595 3.321,-2.79c2.748,-0.3135 3.6705,0.8415 5.409,2.586c0.201,0.201 0.192,0.1305 0.507,0.0885c0.8145,-0.639 1.0995,-1.671 1.8135,-2.4045c0.378,-0.3885 2.19,-0.6375 2.241,-1.0995c0.1035,-0.927 -0.375,-2.1225 -0.7305,-2.97c-1.3425,-0.7215 -2.202,-0.486 -3.267,-1.0515c-0.1065,-0.4245 -0.2145,-0.8475 -0.3255,-1.2705c-0.1845,-0.705 -0.258,-1.326 -0.8835,-1.6905l-0.348,0.1575c-0.681,0.9675 0.795,4.7835 -2.064,4.596c-1.377,-0.0915 -0.6525,-2.142 -1.9035,-2.3175l-0.5325,-0.6465c2.196,-1.518 0.0645,-7.3125 1.332,-8.9175zM203.625,209.439c0.6015,1.6875 1.332,3.0585 3.36,3.1965c0.558,-0.0495 1.251,-0.0885 1.785,-0.2145c1.9845,-1.875 1.9125,-2.5635 1.3065,-5.211c-1.017,-0.9465 -1.4595,-1.3665 -2.9445,-1.503c-2.529,0.2205 -2.9685,1.4295 -3.507,3.732z" fill="#25b8af"/><path d="M205.8225,206.8605c0.657,-0.0195 1.7835,-0.1005 2.3805,0.0345c1.4085,0.318 1.2975,2.292 0.987,3.3285c-0.306,1.02 -0.546,1.2045 -1.422,1.6995c-2.355,0.837 -4.788,-2.9085 -1.9455,-5.0625zM206.2275,210.4275l0.3825,-0.1995c0.2265,-0.7785 0.1665,-1.1715 -0.024,-1.9575l-0.3585,-0.2985c-0.8805,0.876 -0.6135,1.509 0,2.4555zM208.1685,210.4365c0.3015,-0.9285 0.465,-1.2885 0.099,-2.1705c-0.3285,-0.258 -0.189,-0.195 -0.588,-0.3c-0.309,0.6195 -0.1605,1.593 0.024,2.241c0.1845,0.102 0.2655,0.159 0.465,0.2295z" fill="#25b8af"/><path d="M204.009,179.292c0.363,1.2315 0.2715,2.535 0.639,3.537c-0.3495,0.1995 -0.354,0.189 -0.627,0.4785l-0.033,0.2925c0.225,0.2775 0.1245,0.2025 0.4665,0.3435c0.207,1.053 0.387,8.43 0.2625,9.528c-4.599,2.0925 -6.6435,2.913 -8.7405,7.9275c-2.5995,6.216 0.771,13.4145 6.9885,15.684c3.174,1.149 6.6765,0.9885 9.7335,-0.444c4.7415,-2.265 7.7085,-8.703 6.3675,-13.719l0.171,0.216c0.3405,0.432 0.4965,0.951 0.9765,1.1895c0.8895,5.5455 -2.6535,11.3145 -7.584,13.56c-2.7495,1.254 -7.179,1.2075 -9.9495,0.1815c-3.3195,-1.2405 -5.9985,-3.768 -7.434,-7.008c-2.1315,-4.695 -1.2675,-9.756 1.806,-13.8075c1.9005,-2.5065 3.8565,-3.3825 6.648,-4.6485c-0.0135,-4.086 -0.1305,-9.297 0.309,-13.311z" fill="#1eb3b0"/><path d="M214.113,174.2505c0.1305,-0.021 0.2475,0.0465 0.4005,0.099c0.5415,0.891 0.153,2.385 -0.528,3.141l-0.1935,-0.0735c-0.147,-0.615 -0.129,-1.494 -0.1455,-2.1465c-1.8945,0.1785 -3.882,0.0975 -5.7855,0.1215c-1.9755,0.024 -3.9375,0.0915 -5.913,0.06c-0.0705,0.666 0.1305,0.9855 -0.0465,1.743l-0.2175,0.036c-0.7665,-0.6075 -1.2825,-1.896 -0.6405,-2.775c0.816,-0.3975 11.1285,-0.162 13.0695,-0.2055z" fill="#25b8af"/><path d="M197.3205,201.567c0.6915,-2.7945 2.1675,-1.386 3.411,-2.7795c0.7815,-0.8745 0.693,-3.777 3.126,-3.066c1.7565,0.5145 0.318,3.492 1.047,4.7385c0.108,0.1845 0.3825,0.1755 0.594,0.222l0.957,0.282c-3.615,2.931 -2.2755,-2.9145 -3.006,-3.8625c-1.5945,-0.228 -1.0455,2.1885 -1.5645,2.583c-1.3395,1.0185 -2.5965,0.1035 -3.6165,1.8435c0.027,-0.3645 0.0435,-0.351 -0.066,-0.6945l-0.2085,-0.0225z" fill="#1eb3b0"/><path d="M212.7675,193.2585c4.7235,2.7735 6.5955,5.733 7.446,11.067c-0.48,-0.2385 -0.636,-0.7575 -0.9765,-1.1895l-0.171,-0.216c-0.1125,-0.183 -0.0705,-0.0945 -0.1395,-0.2925c-0.9615,-2.805 -2.1255,-5.433 -4.6995,-7.1145c-0.6735,-0.4395 -2.142,-1.4835 -2.643,-2.073c0.405,-0.048 0.783,-0.114 1.1835,-0.1815z" fill="#25b8af"/><path d="M204.648,182.829c1.4145,-0.3195 3.9375,-0.12 5.3475,0.3045l0.0765,5.1915c-0.669,1.0665 -0.837,1.3275 -1.962,1.86c-0.4875,0.3165 -0.306,0.3375 -0.7035,0.2835l-0.0915,-0.7095c0.5865,-0.534 1.1295,-1.1835 1.659,-1.782c0.0705,-1.569 -0.0435,-2.6355 0.12,-4.3125c-1.2255,0.159 -4.0185,-0.09 -4.6395,0.279c-0.342,-0.141 -0.2415,-0.066 -0.4665,-0.3435l0.033,-0.2925c0.273,-0.2895 0.2775,-0.279 0.627,-0.4785z" fill="#25b8af"/><path d="M213.942,210.4875c-0.189,2.991 -0.9615,4.1325 -3.7755,5.367c-0.501,0.219 -1.092,0.213 -1.581,-0.015l-0.0465,-0.27c0.669,-1.0965 3.045,-1.425 3.5025,-2.2755c1.6485,-3.057 -0.4155,-2.7345 2.8665,-5.256l-0.321,0.768l0.1095,0.165c0.2505,0.0195 0.447,0.045 0.6975,0.0375z" fill="#1eb3b0"/><path d="M211.5315,183.693l0.2595,0.492c0.198,-0.231 0.1305,-0.2775 0.195,-0.6795c0.075,0.282 0.018,0.213 0.186,0.4245c-0.0225,-0.387 -0.012,-0.426 0.048,-0.8115l0.2925,-0.078l0.021,2.556c0.0075,1.8435 -0.294,6.267 0.234,7.662c-0.4005,0.0675 -0.7785,0.1335 -1.1835,0.1815c-0.387,-3.2595 -0.0885,-6.4515 -0.0525,-9.747z" fill-opacity="0.98824" fill="#25b8af"/><path d="M197.3205,201.567l0.6735,-0.756l0.2085,0.0225c0.1095,0.3435 0.093,0.33 0.066,0.6945c-0.063,0.795 -0.3435,2.0985 -0.099,2.625c0.714,0.4755 0.8985,0.225 1.593,0.5175c-0.135,0.3195 -0.273,0.693 -0.4455,0.987c-0.639,-0.264 -0.5385,-0.333 -1.131,-0.2595c-0.273,0.471 -0.1755,0.435 -0.1695,1.074c-0.3585,0.3735 -0.348,0.3765 -0.8235,0.651c-0.1995,-1.4745 -0.2925,-4.191 0.1275,-5.556z" fill="#28b0b1"/><path d="M198.0165,206.472c0.693,1.701 2.196,2.3685 3.36,3.786c-0.3285,0.243 -0.633,0.5205 -1.02,0.6195c-0.96,-1.6605 -2.43,-2.1915 -3.1635,-3.7545c0.4755,-0.2745 0.465,-0.2775 0.8235,-0.651z" fill="#1eb3b0"/><path d="M211.5315,183.693c-0.057,-1.242 -0.1185,-3.987 0.6,-5.0385l0.2145,0.102c0.315,0.87 0.36,2.199 0.273,3.117l-0.1065,1.167l-0.2925,0.078c-0.06,0.3855 -0.0705,0.4245 -0.048,0.8115c-0.168,-0.2115 -0.111,-0.1425 -0.186,-0.4245c-0.0645,0.402 0.003,0.4485 -0.195,0.6795z" fill="#28b0b1"/><path d="M201.5145,214.4055l0.2145,-0.57l0.4815,-0.207c1.2915,0.9975 3.0855,0.9585 3.846,1.815l-0.0195,0.237c-1.14,0.3105 -3.63,-0.4545 -4.5225,-1.275z" fill="#28b0b1"/><path d="M199.7625,204.6705c1.455,0.942 1.155,1.881 2.067,2.6475c-0.156,0.5265 -0.1335,0.5535 -0.4845,1.0005c-0.7155,-0.5655 -1.515,-1.878 -2.028,-2.661c0.1725,-0.294 0.3105,-0.6675 0.4455,-0.987z" fill="#25b8af"/><path d="M201.3765,210.258c0.108,0.3165 0.1785,0.3915 0.1695,0.696c0.066,1.167 0.0435,1.653 0.6645,2.6745l-0.4815,0.207l-0.2145,0.57c-0.3345,-0.414 -0.486,-0.78 -0.72,-1.2525c-0.186,-0.9435 -0.1065,-1.3155 -0.438,-2.2755c0.387,-0.099 0.6915,-0.3765 1.02,-0.6195z" fill="#25b8af"/><path d="M200.7945,213.153c0.732,-1.044 0.4845,-0.981 0.7515,-2.199c0.066,1.167 0.0435,1.653 0.6645,2.6745l-0.4815,0.207l-0.2145,0.57c-0.3345,-0.414 -0.486,-0.78 -0.72,-1.2525z" fill="#28b0b1"/><path d="M216.186,206.16l0.2175,-0.234c0.354,0.519 0.321,0.738 0.6345,1.2135c-0.504,0.852 -0.798,1.296 -1.644,1.869c-0.2505,0.0075 -0.447,-0.018 -0.6975,-0.0375l-0.1095,-0.165l0.321,-0.768l0.3735,-0.4095c0.57,-0.618 0.6615,-0.6525 0.9045,-1.4685z" fill-opacity="0.98824" fill="#28b0b1"/><path d="M206.7585,186.6735c0.6825,0.06 0.8115,0.174 1.077,0.7545c0.006,0.6885 -0.1995,1.0155 -0.474,1.6425l-0.3045,-0.0045c-0.669,-0.6195 -0.69,-1.6035 -0.2985,-2.3925z" fill="#25b8af"/><path d="M205.4985,200.682c0.306,-0.6525 0.0615,-1.1475 0.4845,-2.0055l0.5325,0.6465c0.1185,0.786 0.201,0.933 -0.06,1.641z" fill="#28b0b1"/><path d="M91.9461,201.171c-2.39055,-2.7105 0.354,-1.848 -0.63765,-3.576c-2.63355,-4.5915 5.745,-3.7545 1.9623,0.5445c1.23585,1.3785 1.41015,1.722 -0.09105,3.0615c-0.09495,0.873 -0.219,1.6245 -0.13545,2.499c0.0585,0.0705 0.18705,0.237 0.25155,0.2835c0.2979,0.228 0.4821,0.339 0.7284,0.6225l-0.40215,0.435l0.04545,0.1965c0.97035,0.303 3.195,0.0765 4.3824,0.1245l-0.1275,0.0405c-0.71865,0.222 -1.2162,0.111 -1.6533,0.366l0.00435,0.1815c0.3708,0.2565 0.70245,0.168 1.17105,0.1395l0.19215,0.195c-1.1979,0.1305 -2.7975,0.0195 -4.02645,-0.0525c0.7371,0.54 1.3932,0.972 1.99965,1.6575l-0.2466,0.582c0.11835,0.276 0.20175,0.483 0.3384,0.7485l-0.2508,0.069c-0.5478,-0.3105 -1.7883,-1.7925 -2.21835,-2.2935c-0.16665,-0.0735 -0.33285,-0.507 -0.41295,-0.6675c-0.27795,0.0375 -0.74715,0.4905 -1.0137,0.7065c-0.15015,-0.438 -0.2589,-0.3975 -0.5844,-0.7185c-0.63795,-0.1485 -2.235,-0.0675 -2.97105,-0.054c-2.496,0.0075 -3.2973,0.1995 -5.80035,0.7185c-0.5616,-0.141 -0.5403,-0.1185 -0.9366,-0.531c-0.1809,-0.609 -0.18825,-0.3195 -0.0144,-0.9015c0.9717,-0.822 4.2108,-0.2055 5.99925,-0.1665c0.9681,-0.051 3.31575,0.111 3.81975,-0.0345l0.1368,-0.2595c-0.2181,-0.591 -0.7794,-1.029 -1.251,-1.4865l0.21255,-0.096c0.4776,0.1785 0.57765,0.3495 0.9195,0.726l0.1212,0.135l0.1032,-0.0015c0.15525,-0.4845 0.15585,-0.249 0.0069,-0.7305l0.3729,0.042c0.24435,-0.474 0.0552,-1.863 0.006,-2.505zM92.7687,196.9065c0.3171,-0.111 0.49035,-0.4515 0.3921,-0.7725c-0.0984,-0.321 -0.4329,-0.507 -0.75735,-0.4215c-0.22095,0.0585 -0.3921,0.234 -0.4461,0.456c-0.05415,0.222 0.0174,0.456 0.1866,0.6105c0.1692,0.153 0.40875,0.2025 0.62475,0.1275z" fill="#1eb3b0"/><path d="M88.2504,206.262c-2.496,0.0075 -3.2973,0.1995 -5.80035,0.7185c-0.5616,-0.141 -0.5403,-0.1185 -0.9366,-0.531c-0.1809,-0.609 -0.18825,-0.3195 -0.0144,-0.9015c0.9717,-0.822 4.2108,-0.2055 5.99925,-0.1665c0.48435,0.3345 3.05445,0.39 3.80895,0.4335c-0.6951,-0.072 -2.54595,-0.0225 -3.05685,0.447z" fill="#1eb3b0"/><path d="M91.80585,207.0345c0.26655,-0.216 0.73575,-0.669 1.0137,-0.7065c0.0801,0.1605 0.2463,0.594 0.41295,0.6675c-0.441,0.639 -0.23445,3.186 -0.20175,4.086c3.16275,1.266 1.2759,4.7115 -0.996,4.245c-3.09975,-0.636 -0.25815,-4.3665 0.0078,-5.886c0.1113,-0.636 0.0528,-1.926 -0.24405,-2.3025zM92.7003,214.4595c0.78525,-0.7485 1.20015,-1.665 0.08985,-2.3625c-0.12015,-0.075 -0.2421,-0.147 -0.3657,-0.2145c-0.49365,0.5235 -0.60075,0.585 -0.8538,1.236c0.07875,0.903 0.37335,0.918 1.12965,1.341z" fill="#1eb3b0"/><path d="M97.3464,199.7895c0.26955,-1.6365 1.50645,-1.9875 2.7249,-0.8145c-0.2007,2.466 -1.18095,1.4325 -2.6022,2.4795c-1.10625,0.8145 -2.2239,2.3775 -3.4449,3.1515c-0.2463,-0.2835 -0.4305,-0.3945 -0.7284,-0.6225c0.87735,-0.687 3.91455,-3.2655 4.0506,-4.194z" fill="#28b0b1"/><path d="M97.3464,199.7895c0.26955,-1.6365 1.50645,-1.9875 2.7249,-0.8145c-0.7491,0.2985 -1.8849,0.396 -2.154,0.9465l-0.33555,0.0585z" fill="#25b8af"/><path d="M91.22145,206.316c0.3255,0.321 0.43425,0.2805 0.5844,0.7185l-0.00735,0.1035c-0.9069,1.0605 -2.9664,2.913 -4.0698,3.9675c-0.26175,1.0875 -0.55065,2.499 -2.1399,1.656c-1.0986,-1.605 1.1991,-2.349 2.1711,-3.18c1.08015,-0.924 2.38635,-1.998 3.3078,-3.081z" fill="#25b8af"/><path d="M86.08005,200.7765c-0.07395,-0.1275 -0.14595,-0.255 -0.2163,-0.384c-0.516,-0.9525 -0.1794,-1.824 0.78225,-2.2665c1.43295,0.1845 1.50345,1.893 2.2701,2.7615c0.83085,0.9405 1.78755,1.8135 2.6511,2.7465c0.14895,0.4815 0.14835,0.246 -0.0069,0.7305l-0.1032,0.0015l-0.1212,-0.135c-0.34185,-0.3765 -0.4419,-0.5475 -0.9195,-0.726l-0.21255,0.096c-1.6071,-1.608 -1.95765,-2.1 -4.1238,-2.8245z" fill="#28b0b1"/><path d="M95.60985,207.8895c0.7638,0.8145 1.68135,1.8555 2.46795,2.616c1.07925,0.2775 1.97685,0.339 1.8948,1.743c-0.3141,0.5865 -0.1017,0.351 -0.6792,0.717c-0.32055,0.0405 -0.79785,0.0525 -1.0092,-0.2055c-1.0836,-1.3305 -1.59135,-2.205 -2.83335,-3.471l0.2508,-0.069c-0.13665,-0.2655 -0.22005,-0.4725 -0.3384,-0.7485z" fill="#25b8af"/><path d="M98.0499,205.362c0.68505,-0.0105 1.42005,-0.006 2.09805,-0.0735c1.26765,-0.129 3.1779,-0.8355 3.41355,1.0875c-0.2205,0.384 -0.20325,0.4665 -0.71595,0.636c-1.00515,0.3315 -1.44,-0.5295 -2.3922,-0.648c-0.9228,-0.114 -1.9302,-0.009 -2.8167,-0.0795l-0.19215,-0.195c-0.4686,0.0285 -0.80025,0.117 -1.17105,-0.1395l-0.00435,-0.1815c0.4371,-0.255 0.93465,-0.144 1.6533,-0.366z" fill="#28b0b1"/><path d="M85.70505,207.8595c0.4383,0.0045 0.79275,0.3585 0.7986,0.7965c0.00585,0.438 -0.339,0.801 -0.77715,0.8175c-0.2931,0.012 -0.56925,-0.1365 -0.72135,-0.3885c-0.1521,-0.2505 -0.1563,-0.564 -0.01095,-0.819c0.14535,-0.255 0.41745,-0.411 0.71085,-0.4065z" fill="#25b8af"/><path d="M99.3372,207.6405c1.12905,0.4125 0.83565,1.2945 0.36165,2.085c-0.4332,-0.4365 -0.47115,-0.459 -0.7254,-1.005c0.0276,-0.6975 -0.01785,-0.444 0.36375,-1.08z" fill="#2c847a"/><path d="M87.519,192.8385c0.38175,-2.9385 -0.21945,-12.4155 0.7407,-14.3385l0.1494,0.03c0.2301,0.84 0.22935,4.515 0.2379,5.5695c-0.1008,0.4755 -0.16995,0.387 -0.05325,0.75c0.0417,2.0505 0.36585,6.9465 -0.2454,8.5485c-0.9144,0.7965 -2.11875,1.4625 -3.081,2.2215c-9.06105,7.14 -5.30415,21.6945 6.60645,22.398c1.66305,0.0975 3.93225,-0.3195 5.40555,-1.0425l0.25245,0.5385c-0.27975,0.3 -0.1689,0.2115 -0.5244,0.4035l-0.00165,0.189c-1.79895,1.086 -6.04455,0.9795 -8.06205,0.4815c-3.11895,-0.768 -5.93715,-2.847 -7.60575,-5.577c-1.91115,-3.165 -2.4864,-6.9615 -1.59945,-10.551c1.1817,-4.911 3.597,-7.092 7.7805,-9.621z" fill="#1eb3b0"/><path d="M95.14125,192.8955c0.29025,-0.3585 0.68625,-2.067 0.83985,-2.6415l0.0426,2.406c5.33415,2.0985 8.14125,4.653 9.23835,10.4655l-0.8943,-0.06c-1.61985,-5.4075 -3.88305,-7.6035 -8.8737,-9.2985c-0.29085,-0.099 -0.32295,-0.6045 -0.3528,-0.8715z" fill="#1eb3b0"/><path d="M97.27935,216.975c4.1964,-2.0805 5.52465,-4.3515 7.19625,-8.7135c0.29595,0.0645 0.582,0.1755 0.83925,0.102c-0.5292,3.2565 -2.3397,6.1665 -5.028,8.0805c-0.71715,0.5115 -2.43765,1.485 -3.2811,1.662l0.00165,-0.189c0.3555,-0.192 0.24465,-0.1035 0.5244,-0.4035z" fill="#28b0b1"/><path d="M95.14395,183.606c0.4053,0.399 0.4179,0.4425 0.726,0.9345c0.25455,0.969 0.2304,4.611 0.11115,5.7135c-0.1536,0.5745 -0.5496,2.283 -0.83985,2.6415c-0.15,-1.413 -0.22065,-7.866 0.0027,-9.2895z" fill-opacity="0.98824" fill="#1eb3b0"/><path d="M91.2954,182.448c1.1538,-0.0945 2.36685,-0.036 3.52905,-0.0075c-0.2364,0.4785 -0.2799,0.4425 0,0.978c-1.7781,0.006 -2.60055,-0.1815 -4.0023,0.915c-0.15885,-0.357 -0.28995,-0.7095 -0.4293,-1.0725c0.2262,-0.264 0.62715,-0.5775 0.90255,-0.813z" fill="#1eb3b0"/><path d="M105.26205,203.1255c0.5787,1.8975 0.4287,3.309 0.0528,5.238c-0.25725,0.0735 -0.5433,-0.0375 -0.83925,-0.102c0.29805,-1.464 0.345,-3.777 -0.10785,-5.196z" fill="#1eb3b0"/><path d="M94.82445,182.4405c0.67335,-0.8055 -0.0291,-2.424 0.9468,-3.2565c0.34845,0.459 0.0936,4.4025 0.0987,5.3565c-0.3081,-0.492 -0.3207,-0.5355 -0.726,-0.9345l-0.3195,-0.1875c-0.2799,-0.5355 -0.2364,-0.4995 0,-0.978z" fill="#28b0b1"/><path d="M90.39285,183.261c0.13935,0.363 0.27045,0.7155 0.4293,1.0725c-0.9396,0.48 -1.1934,0.6195 -2.2284,0.516c-0.1167,-0.363 -0.04755,-0.2745 0.05325,-0.75c0.60045,-0.0855 1.2444,-0.5115 1.74585,-0.8385z" fill="#25b8af"/><path d="M235.3695,171.9315c-2.76,-4.059 -2.5425,-3.1545 0.042,-6.849c0.282,-0.402 1.3275,-4.1985 1.4955,-4.9155c0.408,-1.7325 -0.3765,-5.8245 0.501,-7.3635l0.264,-0.0555c0.2745,0.2295 0.564,0.5085 0.5745,0.9c0.075,2.712 -0.0675,5.4075 0.057,8.124l1.038,1.1985c0.549,2.6415 0.5295,8.955 0.153,11.679c0.495,-0.357 1.005,-0.69 1.515,-1.0275c0.0255,0.507 0.138,1.038 -0.3105,1.392c-4.017,3.504 -8.7075,6.7815 -12.8625,10.1295c-1.347,1.0845 -3.243,2.4705 -4.422,3.642c-0.339,0.333 -0.48,0.4275 -0.6735,0.8715c-0.3825,-0.3705 -0.54,-0.4605 -0.6825,-0.9765c0.0585,-0.6045 0.6045,-1.158 0.9975,-1.6635c0.042,-1.476 -0.033,-3 -0.081,-4.4805c2.472,-2.439 5.3415,-2.2725 4.476,-6.3675c-0.1635,-0.7725 -0.111,-1.602 0.603,-2.0505c0.567,0.0495 0.3285,-0.0555 0.747,0.3075c0.2775,1.092 0.159,2.586 0.0465,3.7095c1.6365,-1.3305 1.8555,-2.0175 3.231,-3.5085c0.789,-0.855 2.319,-1.965 3.291,-2.6955zM224.211,186.3675l1.329,-1.011c1.0125,-0.876 2.295,-1.6575 3.228,-2.5185c3.0135,-2.787 6.963,-5.0895 9.99,-7.7475c-0.5415,-0.561 -1.812,-1.9695 -2.4045,-2.292c-2.688,1.803 -3.153,2.832 -5.2395,5.1525c-0.783,0.8715 -3.3315,2.5455 -4.425,3.492c-2.73,2.367 -2.394,0.9855 -2.478,4.9245zM238.4625,167.0235l0.021,-3.255c-0.4695,-0.495 -0.828,-0.8805 -1.254,-1.4205c0.3135,5.85 -5.511,4.794 0.531,10.242c0.2295,0.207 0.3045,0.243 0.5955,0.3465c0.054,-0.06 0.1065,-0.12 0.159,-0.1785c-0.075,-1.5405 -0.2025,-4.3125 -0.0525,-5.7345z" fill="#1eb3b0"/><path d="M238.4835,163.7685l0.1095,-0.12c0.5415,1.4565 0.7905,2.91 0.393,4.4325l-0.159,0.1245c0,-0.3915 0.033,-0.816 -0.087,-1.179c-0.015,0.624 -0.015,0.888 -0.1275,1.494l-0.15,-1.497z" fill="#25b8af"/><path d="M186.114,189.5175c1.953,-1.5855 3.2475,-3.2175 5.121,-4.7805c0.2595,-0.216 0.903,-0.306 1.245,-0.3495c-0.4215,0.5355 -0.5505,0.4935 -0.504,0.984l0.0735,0.0615c-1.02,1.0455 -1.908,1.956 -2.856,3.075l3.2055,0.045c-1.0005,0.3465 -1.6455,0.2055 -2.64,0.4215l0.126,0.051c0.4395,0.186 0.3765,0.105 0.6855,0.441l-0.084,0.117c-0.666,-0.147 -1.293,-0.321 -1.95,-0.4995c-2.5515,2.472 -2.3295,1.248 -5.3625,1.296l-0.2265,0.0045c-0.462,-1.623 -0.279,-2.802 -0.3615,-4.4625c-0.405,-0.246 -9.2265,0.0345 -10.9875,-0.3345l-0.2415,-0.0525c0.8775,0.7245 4.3695,3.471 4.347,4.5585c-1.0935,0.18 -4.83,-3.525 -5.763,-4.374c-0.6,2.2275 -0.438,4.728 -0.9945,6.444c-1.776,1.5345 -9.846,8.6595 -11.658,8.7345l-0.096,-0.1725c1.1085,-2.7285 8.664,-6.612 10.497,-9.3405c1.0875,-1.62 -0.258,-4.953 1.2165,-6.3435c0.69,-0.6495 12.84,-0.2865 14.748,-0.3015c0.2025,0.462 0.195,0.432 0.222,0.936l-0.198,0.1425c-0.2865,0.7125 0.162,2.5155 0.3285,3.3c0.7035,0.129 1.4055,0.2625 2.1075,0.399z" fill="#1eb3b0"/><path d="M61.4802,161.4135c-0.1074,-1.4565 -0.48255,-7.812 0.3768,-8.7l0.2853,0.021c0.9561,0.99 0.5988,6.5445 0.639,8.3775c0.6234,0.8355 0.80265,1.1055 0.873,2.1375c-0.3009,-0.291 -0.31845,-0.369 -0.44445,-0.768c-0.22635,0.162 -0.40125,0.303 -0.618,0.477l-0.28395,-0.2805c-1.764,0.414 -0.6951,8.5065 -1.01655,10.095c0.0312,0.0855 0.06255,0.171 0.09375,0.255c0.56085,-0.126 0.6951,-0.1665 1.1703,-0.486c0.29325,0.0975 0.15285,0.0225 0.3654,0.381c-0.71025,0.744 -1.3887,1.3935 -2.13585,2.1c1.39065,1.401 13.43475,10.923 14.74185,11.5305c0.3306,0.1575 0.55515,0.297 0.909,0.372l0.10515,0.2385c0.2652,0.591 0.69405,0.912 0.65115,1.5945c-0.05025,0.7965 -1.58055,1.62 -2.16435,2.0205l-0.6246,-0.627l1.32045,-1.5225c-1.1595,-1.2345 -2.9877,-2.529 -4.3563,-3.594l-8.11125,-6.258c-1.6002,-1.242 -3.07485,-2.7705 -4.75635,-3.8715l-0.1518,-1.0185c0.8955,0.2925 1.06215,0.4095 1.83225,0.9045c-0.0852,-3.3045 -0.29955,-8.5875 0.2364,-11.853c0.06555,-0.399 0.76515,-1.179 1.06365,-1.5255z" fill="url(#color-9)"/><path d="M66.14145,190.4205c0.7452,0.7785 2.65395,2.466 2.61015,3.5205l0.027,-0.033l-0.29625,0.0375c-1.2897,-0.6105 -2.2428,-1.485 -3.02805,-2.6685c0.2976,-0.255 0.4635,-0.5355 0.68715,-0.8565z" fill="#28b0b1"/><path d="M65.4543,191.277c-0.4074,-0.621 -0.6135,-0.879 -0.6666,-1.599l0.1839,-0.1965c0.51165,0.1155 0.80085,0.5385 1.16985,0.939c-0.22365,0.321 -0.38955,0.6015 -0.68715,0.8565z" fill="#1eb3b0"/><path d="M168.4515,179.9415c2.766,-0.8925 19.053,-0.2325 22.854,-0.333c1.1835,-0.0315 6.3015,-0.1275 7.599,-0.087c-0.198,2.037 -0.276,4.083 -0.2355,6.1275c0.033,1.2675 0.183,2.8155 0.174,4.0275c-2.2605,-0.054 -4.4265,-0.159 -6.684,-0.012c1.728,0.8145 3.4755,2.1855 4.545,3.7815l-0.621,0.5625c-1.2165,-0.8955 -3.3075,-2.6655 -4.431,-3.693c-0.453,0.4425 -1.062,0.9285 -1.5555,1.344c-0.1155,-0.573 -0.147,-0.5595 -0.4995,-0.999c0.6495,-0.552 0.645,-0.384 0.8895,-1.077l0.084,-0.117c-0.309,-0.336 -0.246,-0.255 -0.6855,-0.441l-0.126,-0.051c0.9945,-0.216 1.6395,-0.075 2.64,-0.4215c1.9245,-0.1725 3.3225,-0.2265 5.241,-0.0555c0.084,-2.643 -0.081,-5.295 0.0015,-7.911c-6.582,-0.072 -13.0455,0.009 -19.617,-0.0075c-2.382,-0.006 -7.596,0.06 -9.729,-0.249z" fill="#28b0b1"/><path d="M232.4745,191.4615c0.5445,-0.669 1.0935,-1.461 1.8045,-1.908l0.3075,-0.0015c0.279,1.0155 -1.2075,2.6925 -1.9185,3.318c-0.0765,-0.441 -0.1335,-0.96 -0.1935,-1.4085z" fill="#1eb3b0"/><path d="M229.881,194.1285c0.945,-0.9585 1.641,-1.65 2.5935,-2.667c0.06,0.4485 0.117,0.9675 0.1935,1.4085c-0.807,0.7875 -1.689,0.924 -2.787,1.2585z" fill="#25b8af"/><path d="M62.59185,162.9585c0.21675,-0.174 0.39165,-0.315 0.618,-0.477c0.126,0.399 0.14355,0.477 0.44445,0.768c0.2217,0.6765 0.22035,0.8805 0.2859,1.605c0.97215,1.209 1.90695,2.1915 2.5005,3.6225c-0.6288,1.611 -1.12545,2.0805 -2.25825,3.4125c0.93255,0.729 2.6826,2.043 3.46695,2.8335c1.4532,1.464 1.32225,2.3235 3.2508,3.5865c-0.17625,-0.9225 -0.72345,-5.97 0.45735,-6.12c0.34665,0.2805 0.4947,0.546 0.51525,0.996c0.09705,2.115 -0.0906,3.816 0.1653,5.9625c1.1061,0.8985 3.19785,2.373 4.06725,3.2955c0.57645,1.56 0.4365,2.817 0.33045,4.482c-0.35385,-0.075 -0.5784,-0.2145 -0.909,-0.372c-0.2736,-1.4445 0.04275,-2.799 -1.08615,-3.8715c-1.3155,-1.524 -4.3827,-2.8335 -5.6595,-4.215c-2.1813,-2.358 -2.8116,-3.639 -5.47635,-5.61l-0.384,0.066c-0.21255,-0.3585 -0.07215,-0.2835 -0.3654,-0.381c-0.4752,0.3195 -0.60945,0.36 -1.1703,0.486c0.16335,-0.126 0.3216,-0.258 0.47475,-0.396c0.54105,-0.4875 1.1649,-1.3035 1.64505,-1.8495c3.3654,-3.8295 -1.24065,-3.1485 -0.92895,-7.62z" fill="#1eb3b0"/><path d="M85.54185,177.591c-0.35715,-0.732 -0.70815,-2.4285 -0.1218,-3.099c1.25205,-0.2985 12.24225,-0.4245 13.05405,-0.0315c0.74235,0.912 0.36495,2.2905 -0.297,3.135l-0.0267,-0.0105l-0.35115,-0.369c-0.17145,-0.585 -0.03255,-1.1745 0.0438,-1.797c-3.3348,0.318 -7.2618,-0.15 -10.65435,0.0135c-1.9677,0.096 -0.1596,0.8745 -1.54455,2.1765z" fill-opacity="0.98824" fill="#28b0b1"/><path d="M189.3735,181.974c1.404,-0.0645 3.3075,-0.0135 4.749,-0.012c0.087,0.3375 0.117,0.516 0.255,0.8385c-1.743,0.024 -4.458,-0.213 -5.604,1.197c-1.704,2.0985 -2.2455,1.872 -4.8975,1.6785c-0.027,-0.504 -0.0195,-0.474 -0.222,-0.936c3.978,-0.045 2.895,-0.381 5.574,-2.6445z" fill="#28b0b1"/><path d="M192.48,184.3875c0.966,0.7665 1.5225,1.581 2.5905,1.8765l0.144,0.1125l-0.0255,0.096c0.474,0.114 0.525,0.1875 0.8685,0.504c-2.712,0.6555 -2.271,0.2505 -4.008,-1.5435l-0.0735,-0.0615c-0.0465,-0.4905 0.0825,-0.4485 0.504,-0.984z" fill="#25b8af"/><path d="M195.219,182.952c0.378,0.4605 0.6075,0.7245 0.912,1.2315c0.0255,0.759 0.144,2.142 -0.0735,2.793c-0.3435,-0.3165 -0.3945,-0.39 -0.8685,-0.504l0.0255,-0.096l-0.144,-0.1125c0.1185,-0.4605 0.132,-2.718 0.1485,-3.312z" fill="#1eb3b0"/><path d="M194.1225,181.962c0.663,-0.009 1.2075,-0.09 1.791,0.1875c0.546,0.6735 0.333,1.2225 0.2175,2.034c-0.3045,-0.507 -0.534,-0.771 -0.912,-1.2315c-0.2355,-0.093 -0.5775,-0.1155 -0.8415,-0.1515c-0.138,-0.3225 -0.168,-0.501 -0.255,-0.8385z" fill="#25b8af"/><path d="M223.4145,188.7855c0.819,0.6375 1.101,0.8325 1.524,1.7625l-0.45,0.2805c-0.8325,-0.435 -1.029,-0.528 -1.7475,-1.1715c0.1935,-0.444 0.3345,-0.5385 0.6735,-0.8715z" fill="#25b8af"/><path d="M189.597,190.6605c0.3525,0.4395 0.384,0.426 0.4995,0.999c-0.4665,0.4455 -0.942,1.0935 -1.6095,0.8925l-0.063,-0.372c0.2085,-0.6735 0.6615,-1.0095 1.173,-1.5195z" fill="#25b8af"/></g></svg></svg>