<svg xmlns="http://www.w3.org/2000/svg" xmlns:v="https://svgstorm.com"
viewBox = "0 0 774 322"
width="774"
height="322">
<g fill="None" fill-opacity="0.0" stroke="#000000" stroke-opacity="0.00" stroke-width="0.3"><path d="
M 0.00 322.00 
L 774.00 322.00
L 774.00 0.00
L 0.00 0.00
L 0.00 322.00
M 241.00 125.00 
C 241.36 129.49 241.31 134.50 241.00 139.00
C 238.73 172.28 225.97 199.47 191.98 210.98 C 157.98 222.48 128.85 186.27 130.22 154.78 C 131.59 123.29 136.85 90.64 170.08 78.08 C 203.30 65.51 238.36 91.75 241.00 125.00
M 736.00 153.00 
C 744.76 171.55 738.19 193.11 721.92 204.92 C 705.65 216.73 684.90 222.90 665.31 213.69 C 645.71 204.49 641.66 180.68 645.00 160.00 C 648.34 139.32 650.16 116.53 655.00 96.00 C 659.84 75.47 691.81 76.25 709.00 78.00 C 726.19 79.75 745.05 90.43 754.77 106.23 C 764.49 122.03 755.83 149.63 736.00 153.00
M 302.00 111.00 
C 302.39 118.26 299.61 124.72 300.00 132.00
C 312.27 129.28 331.39 133.38 329.00 150.00 C 326.61 166.62 307.02 164.53 294.00 164.00
C 294.18 170.21 292.04 175.82 292.00 182.00
C 306.55 184.01 327.45 174.41 340.25 184.75 C 353.05 195.10 343.79 216.15 326.00 213.00 C 308.21 209.85 293.45 215.79 275.00 216.00 C 256.55 216.21 254.84 198.50 258.99 182.99 C 263.14 167.48 262.18 151.81 265.99 135.99 C 269.80 120.18 268.66 105.99 273.93 89.93 C 279.19 73.87 302.36 80.71 316.00 79.00 C 329.64 77.29 352.52 84.44 345.67 102.67 C 338.82 120.90 315.82 108.09 302.00 111.00
M 43.00 182.00 
C 37.60 198.55 47.21 218.18 36.23 233.23 C 25.25 248.28 2.50 235.86 7.00 218.00 C 11.50 200.14 9.23 181.86 12.33 164.33 C 15.43 146.80 15.40 129.61 18.78 112.78 C 22.15 95.95 33.28 86.12 50.00 85.00 C 66.72 83.88 81.79 89.27 94.25 98.75 C 106.70 108.24 115.88 122.29 114.00 138.00 C 112.12 153.71 104.25 164.35 91.30 173.30 C 78.35 182.25 58.98 184.91 43.00 182.00
M 595.00 194.00 
C 586.33 194.00 577.67 194.00 569.00 194.00
C 565.46 206.79 568.40 234.97 548.00 233.00 C 527.60 231.03 532.62 208.87 535.78 194.78 C 538.93 180.69 542.63 161.06 548.93 147.93 C 555.22 134.79 560.67 119.68 569.92 108.92 C 579.17 98.15 592.06 81.88 607.67 86.33 C 623.28 90.78 627.20 111.46 626.99 127.01 C 626.78 142.55 628.83 170.14 628.00 186.00 C 627.17 201.86 636.96 226.81 615.93 231.93 C 594.89 237.04 594.68 206.81 595.00 194.00
M 458.00 179.00 
C 473.06 177.97 487.64 173.80 503.00 174.00 C 518.36 174.20 519.58 198.24 507.77 203.77 C 495.96 209.30 476.04 208.24 464.33 211.33 C 452.62 214.42 434.38 223.38 425.75 211.25 C 417.12 199.11 426.09 180.21 425.20 166.75 C 424.30 153.30 430.38 134.50 429.99 120.99 C 429.60 107.49 435.67 90.81 452.22 94.78 C 468.78 98.75 463.29 118.16 462.00 132.00 C 460.71 145.84 457.55 164.26 458.00 179.00 Z"/>
</g>
<g fill="None" fill-opacity="0.0" stroke="#7B6DED" stroke-opacity="0.97" stroke-width="0.3"><path d="
M 241.00 139.00 
C 240.89 135.15 240.93 128.76 241.00 125.00
C 238.36 91.75 203.30 65.51 170.08 78.08 C 136.85 90.64 131.59 123.29 130.22 154.78 C 128.85 186.27 157.98 222.48 191.98 210.98 C 225.97 199.47 238.73 172.28 241.00 139.00
M 200.00 112.00 
C 209.72 115.50 210.68 127.61 209.00 138.00
C 206.54 153.17 203.75 178.06 182.92 180.92 C 162.10 183.79 160.15 149.43 163.33 134.33 C 166.51 119.23 182.59 97.41 200.00 112.00 Z"/>
</g>
<g fill="None" fill-opacity="0.0" stroke="#EC69C8" stroke-opacity="0.97" stroke-width="0.3"><path d="
M 736.00 153.00 
C 755.83 149.63 764.49 122.03 754.77 106.23 C 745.05 90.43 726.19 79.75 709.00 78.00 C 691.81 76.25 659.84 75.47 655.00 96.00 C 650.16 116.53 648.34 139.32 645.00 160.00 C 641.66 180.68 645.71 204.49 665.31 213.69 C 684.90 222.90 705.65 216.73 721.92 204.92 C 738.19 193.11 744.76 171.55 736.00 153.00
M 683.00 134.00 
C 682.62 126.06 686.44 119.25 685.00 111.00
C 690.31 109.55 705.40 109.22 709.68 111.32 C 713.96 113.42 727.30 116.58 725.97 122.03 C 724.64 127.48 712.80 127.96 707.78 130.78 C 702.75 133.59 689.16 133.03 683.00 134.00
M 678.00 164.00 
C 686.08 165.09 694.09 165.33 702.00 167.00 C 709.92 168.67 707.72 179.21 700.92 180.92 C 694.12 182.62 688.26 189.33 680.93 186.07 C 673.59 182.82 678.56 170.35 678.00 164.00 Z"/>
</g>
<g fill="None" fill-opacity="0.0" stroke="#936DE4" stroke-opacity="0.96" stroke-width="0.3"><path d="
M 302.00 111.00 
C 315.82 108.09 338.82 120.90 345.67 102.67 C 352.52 84.44 329.64 77.29 316.00 79.00 C 302.36 80.71 279.19 73.87 273.93 89.93 C 268.66 105.99 269.80 120.18 265.99 135.99 C 262.18 151.81 263.14 167.48 258.99 182.99 C 254.84 198.50 256.55 216.21 275.00 216.00 C 293.45 215.79 308.21 209.85 326.00 213.00 C 343.79 216.15 353.05 195.10 340.25 184.75 C 327.45 174.41 306.55 184.01 292.00 182.00
C 292.04 175.82 294.18 170.21 294.00 164.00
C 307.02 164.53 326.61 166.62 329.00 150.00 C 331.39 133.38 312.27 129.28 300.00 132.00
C 299.61 124.72 302.39 118.26 302.00 111.00 Z"/>
</g>
<g fill="None" fill-opacity="0.0" stroke="#5E6FF6" stroke-opacity="0.97" stroke-width="0.3"><path d="
M 43.00 182.00 
C 58.98 184.91 78.35 182.25 91.30 173.30 C 104.25 164.35 112.12 153.71 114.00 138.00 C 115.88 122.29 106.70 108.24 94.25 98.75 C 81.79 89.27 66.72 83.88 50.00 85.00 C 33.28 86.12 22.15 95.95 18.78 112.78 C 15.40 129.61 15.43 146.80 12.33 164.33 C 9.23 181.86 11.50 200.14 7.00 218.00 C 2.50 235.86 25.25 248.28 36.23 233.23 C 47.21 218.18 37.60 198.55 43.00 182.00
M 50.00 117.00 
C 56.72 114.82 66.73 116.87 72.08 120.92 C 77.44 124.97 84.00 130.41 82.07 137.08 C 80.13 143.76 72.56 147.93 66.70 150.70 C 60.84 153.48 44.28 152.49 47.33 143.33 C 50.38 134.17 48.02 126.22 50.00 117.00 Z"/>
</g>
<g fill="None" fill-opacity="0.0" stroke="#D36AD0" stroke-opacity="0.97" stroke-width="0.3"><path d="
M 595.00 194.00 
C 594.68 206.81 594.89 237.04 615.93 231.93 C 636.96 226.81 627.17 201.86 628.00 186.00 C 628.83 170.14 626.78 142.55 626.99 127.01 C 627.20 111.46 623.28 90.78 607.67 86.33 C 592.06 81.88 579.17 98.15 569.92 108.92 C 560.67 119.68 555.22 134.79 548.93 147.93 C 542.63 161.06 538.93 180.69 535.78 194.78 C 532.62 208.87 527.60 231.03 548.00 233.00 C 568.40 234.97 565.46 206.79 569.00 194.00
C 577.67 194.00 586.33 194.00 595.00 194.00
M 594.00 132.00 
C 594.20 142.37 594.64 153.50 596.00 163.00
C 590.31 161.53 584.05 162.08 578.00 162.00
C 580.63 150.88 587.60 141.11 594.00 132.00 Z"/>
</g>
<g fill="None" fill-opacity="0.0" stroke="#B76CD9" stroke-opacity="0.96" stroke-width="0.3"><path d="
M 458.00 179.00 
C 457.55 164.26 460.71 145.84 462.00 132.00 C 463.29 118.16 468.78 98.75 452.22 94.78 C 435.67 90.81 429.60 107.49 429.99 120.99 C 430.38 134.50 424.30 153.30 425.20 166.75 C 426.09 180.21 417.12 199.11 425.75 211.25 C 434.38 223.38 452.62 214.42 464.33 211.33 C 476.04 208.24 495.96 209.30 507.77 203.77 C 519.58 198.24 518.36 174.20 503.00 174.00 C 487.64 173.80 473.06 177.97 458.00 179.00 Z"/>
</g>
<g fill="None" fill-opacity="0.0" stroke="#000000" stroke-opacity="0.00" stroke-width="0.3"><path d="
M 209.00 138.00 
C 208.89 130.86 205.73 116.80 200.00 112.00
C 182.59 97.41 166.51 119.23 163.33 134.33 C 160.15 149.43 162.10 183.79 182.92 180.92 C 203.75 178.06 206.54 153.17 209.00 138.00 Z"/>
</g>
<g fill="None" fill-opacity="0.0" stroke="#000000" stroke-opacity="0.00" stroke-width="0.3"><path d="
M 683.00 134.00 
C 689.16 133.03 702.75 133.59 707.78 130.78 C 712.80 127.96 724.64 127.48 725.97 122.03 C 727.30 116.58 713.96 113.42 709.68 111.32 C 705.40 109.22 690.31 109.55 685.00 111.00
C 686.44 119.25 682.62 126.06 683.00 134.00 Z"/>
</g>
<g fill="None" fill-opacity="0.0" stroke="#887DD8" stroke-opacity="0.80" stroke-width="0.3"><path d="
M 200.00 112.00 
C 205.73 116.80 208.89 130.86 209.00 138.00
C 210.68 127.61 209.72 115.50 200.00 112.00 Z"/>
</g>
<g fill="None" fill-opacity="0.0" stroke="#000000" stroke-opacity="0.00" stroke-width="0.3"><path d="
M 50.00 117.00 
C 48.02 126.22 50.38 134.17 47.33 143.33 C 44.28 152.49 60.84 153.48 66.70 150.70 C 72.56 147.93 80.13 143.76 82.07 137.08 C 84.00 130.41 77.44 124.97 72.08 120.92 C 66.73 116.87 56.72 114.82 50.00 117.00 Z"/>
</g>
<g fill="None" fill-opacity="0.0" stroke="#8E7BD7" stroke-opacity="0.51" stroke-width="0.3"><path d="
M 241.00 139.00 
C 241.31 134.50 241.36 129.49 241.00 125.00
C 240.93 128.76 240.89 135.15 241.00 139.00 Z"/>
</g>
<g fill="None" fill-opacity="0.0" stroke="#000000" stroke-opacity="0.00" stroke-width="0.3"><path d="
M 594.00 132.00 
C 587.60 141.11 580.63 150.88 578.00 162.00
C 584.05 162.08 590.31 161.53 596.00 163.00
C 594.64 153.50 594.20 142.37 594.00 132.00 Z"/>
</g>
<g fill="None" fill-opacity="0.0" stroke="#000000" stroke-opacity="0.00" stroke-width="0.3"><path d="
M 678.00 164.00 
C 678.56 170.35 673.59 182.82 680.93 186.07 C 688.26 189.33 694.12 182.62 700.92 180.92 C 707.72 179.21 709.92 168.67 702.00 167.00 C 694.09 165.33 686.08 165.09 678.00 164.00 Z"/>
</g>
<g fill="#000000" fill-opacity="0.00" stroke="None">
<path d="
M 0.00 322.00 
L 774.00 322.00
L 774.00 0.00
L 0.00 0.00
L 0.00 322.00
M 241.00 125.00 
C 241.36 129.49 241.31 134.50 241.00 139.00
C 238.73 172.28 225.97 199.47 191.98 210.98 C 157.98 222.48 128.85 186.27 130.22 154.78 C 131.59 123.29 136.85 90.64 170.08 78.08 C 203.30 65.51 238.36 91.75 241.00 125.00
M 736.00 153.00 
C 744.76 171.55 738.19 193.11 721.92 204.92 C 705.65 216.73 684.90 222.90 665.31 213.69 C 645.71 204.49 641.66 180.68 645.00 160.00 C 648.34 139.32 650.16 116.53 655.00 96.00 C 659.84 75.47 691.81 76.25 709.00 78.00 C 726.19 79.75 745.05 90.43 754.77 106.23 C 764.49 122.03 755.83 149.63 736.00 153.00
M 302.00 111.00 
C 302.39 118.26 299.61 124.72 300.00 132.00
C 312.27 129.28 331.39 133.38 329.00 150.00 C 326.61 166.62 307.02 164.53 294.00 164.00
C 294.18 170.21 292.04 175.82 292.00 182.00
C 306.55 184.01 327.45 174.41 340.25 184.75 C 353.05 195.10 343.79 216.15 326.00 213.00 C 308.21 209.85 293.45 215.79 275.00 216.00 C 256.55 216.21 254.84 198.50 258.99 182.99 C 263.14 167.48 262.18 151.81 265.99 135.99 C 269.80 120.18 268.66 105.99 273.93 89.93 C 279.19 73.87 302.36 80.71 316.00 79.00 C 329.64 77.29 352.52 84.44 345.67 102.67 C 338.82 120.90 315.82 108.09 302.00 111.00
M 43.00 182.00 
C 37.60 198.55 47.21 218.18 36.23 233.23 C 25.25 248.28 2.50 235.86 7.00 218.00 C 11.50 200.14 9.23 181.86 12.33 164.33 C 15.43 146.80 15.40 129.61 18.78 112.78 C 22.15 95.95 33.28 86.12 50.00 85.00 C 66.72 83.88 81.79 89.27 94.25 98.75 C 106.70 108.24 115.88 122.29 114.00 138.00 C 112.12 153.71 104.25 164.35 91.30 173.30 C 78.35 182.25 58.98 184.91 43.00 182.00
M 595.00 194.00 
C 586.33 194.00 577.67 194.00 569.00 194.00
C 565.46 206.79 568.40 234.97 548.00 233.00 C 527.60 231.03 532.62 208.87 535.78 194.78 C 538.93 180.69 542.63 161.06 548.93 147.93 C 555.22 134.79 560.67 119.68 569.92 108.92 C 579.17 98.15 592.06 81.88 607.67 86.33 C 623.28 90.78 627.20 111.46 626.99 127.01 C 626.78 142.55 628.83 170.14 628.00 186.00 C 627.17 201.86 636.96 226.81 615.93 231.93 C 594.89 237.04 594.68 206.81 595.00 194.00
M 458.00 179.00 
C 473.06 177.97 487.64 173.80 503.00 174.00 C 518.36 174.20 519.58 198.24 507.77 203.77 C 495.96 209.30 476.04 208.24 464.33 211.33 C 452.62 214.42 434.38 223.38 425.75 211.25 C 417.12 199.11 426.09 180.21 425.20 166.75 C 424.30 153.30 430.38 134.50 429.99 120.99 C 429.60 107.49 435.67 90.81 452.22 94.78 C 468.78 98.75 463.29 118.16 462.00 132.00 C 460.71 145.84 457.55 164.26 458.00 179.00 Z"/>
</g>
<g fill="#7B6DED" fill-opacity="0.97" stroke="None">
<path d="
M 241.00 139.00 
C 240.89 135.15 240.93 128.76 241.00 125.00
C 238.36 91.75 203.30 65.51 170.08 78.08 C 136.85 90.64 131.59 123.29 130.22 154.78 C 128.85 186.27 157.98 222.48 191.98 210.98 C 225.97 199.47 238.73 172.28 241.00 139.00
M 200.00 112.00 
C 209.72 115.50 210.68 127.61 209.00 138.00
C 206.54 153.17 203.75 178.06 182.92 180.92 C 162.10 183.79 160.15 149.43 163.33 134.33 C 166.51 119.23 182.59 97.41 200.00 112.00 Z"/>
</g>
<g fill="#EC69C8" fill-opacity="0.97" stroke="None">
<path d="
M 736.00 153.00 
C 755.83 149.63 764.49 122.03 754.77 106.23 C 745.05 90.43 726.19 79.75 709.00 78.00 C 691.81 76.25 659.84 75.47 655.00 96.00 C 650.16 116.53 648.34 139.32 645.00 160.00 C 641.66 180.68 645.71 204.49 665.31 213.69 C 684.90 222.90 705.65 216.73 721.92 204.92 C 738.19 193.11 744.76 171.55 736.00 153.00
M 683.00 134.00 
C 682.62 126.06 686.44 119.25 685.00 111.00
C 690.31 109.55 705.40 109.22 709.68 111.32 C 713.96 113.42 727.30 116.58 725.97 122.03 C 724.64 127.48 712.80 127.96 707.78 130.78 C 702.75 133.59 689.16 133.03 683.00 134.00
M 678.00 164.00 
C 686.08 165.09 694.09 165.33 702.00 167.00 C 709.92 168.67 707.72 179.21 700.92 180.92 C 694.12 182.62 688.26 189.33 680.93 186.07 C 673.59 182.82 678.56 170.35 678.00 164.00 Z"/>
</g>
<g fill="#936DE4" fill-opacity="0.96" stroke="None">
<path d="
M 302.00 111.00 
C 315.82 108.09 338.82 120.90 345.67 102.67 C 352.52 84.44 329.64 77.29 316.00 79.00 C 302.36 80.71 279.19 73.87 273.93 89.93 C 268.66 105.99 269.80 120.18 265.99 135.99 C 262.18 151.81 263.14 167.48 258.99 182.99 C 254.84 198.50 256.55 216.21 275.00 216.00 C 293.45 215.79 308.21 209.85 326.00 213.00 C 343.79 216.15 353.05 195.10 340.25 184.75 C 327.45 174.41 306.55 184.01 292.00 182.00
C 292.04 175.82 294.18 170.21 294.00 164.00
C 307.02 164.53 326.61 166.62 329.00 150.00 C 331.39 133.38 312.27 129.28 300.00 132.00
C 299.61 124.72 302.39 118.26 302.00 111.00 Z"/>
</g>
<g fill="#5E6FF6" fill-opacity="0.97" stroke="None">
<path d="
M 43.00 182.00 
C 58.98 184.91 78.35 182.25 91.30 173.30 C 104.25 164.35 112.12 153.71 114.00 138.00 C 115.88 122.29 106.70 108.24 94.25 98.75 C 81.79 89.27 66.72 83.88 50.00 85.00 C 33.28 86.12 22.15 95.95 18.78 112.78 C 15.40 129.61 15.43 146.80 12.33 164.33 C 9.23 181.86 11.50 200.14 7.00 218.00 C 2.50 235.86 25.25 248.28 36.23 233.23 C 47.21 218.18 37.60 198.55 43.00 182.00
M 50.00 117.00 
C 56.72 114.82 66.73 116.87 72.08 120.92 C 77.44 124.97 84.00 130.41 82.07 137.08 C 80.13 143.76 72.56 147.93 66.70 150.70 C 60.84 153.48 44.28 152.49 47.33 143.33 C 50.38 134.17 48.02 126.22 50.00 117.00 Z"/>
</g>
<g fill="#D36AD0" fill-opacity="0.97" stroke="None">
<path d="
M 595.00 194.00 
C 594.68 206.81 594.89 237.04 615.93 231.93 C 636.96 226.81 627.17 201.86 628.00 186.00 C 628.83 170.14 626.78 142.55 626.99 127.01 C 627.20 111.46 623.28 90.78 607.67 86.33 C 592.06 81.88 579.17 98.15 569.92 108.92 C 560.67 119.68 555.22 134.79 548.93 147.93 C 542.63 161.06 538.93 180.69 535.78 194.78 C 532.62 208.87 527.60 231.03 548.00 233.00 C 568.40 234.97 565.46 206.79 569.00 194.00
C 577.67 194.00 586.33 194.00 595.00 194.00
M 594.00 132.00 
C 594.20 142.37 594.64 153.50 596.00 163.00
C 590.31 161.53 584.05 162.08 578.00 162.00
C 580.63 150.88 587.60 141.11 594.00 132.00 Z"/>
</g>
<g fill="#B76CD9" fill-opacity="0.96" stroke="None">
<path d="
M 458.00 179.00 
C 457.55 164.26 460.71 145.84 462.00 132.00 C 463.29 118.16 468.78 98.75 452.22 94.78 C 435.67 90.81 429.60 107.49 429.99 120.99 C 430.38 134.50 424.30 153.30 425.20 166.75 C 426.09 180.21 417.12 199.11 425.75 211.25 C 434.38 223.38 452.62 214.42 464.33 211.33 C 476.04 208.24 495.96 209.30 507.77 203.77 C 519.58 198.24 518.36 174.20 503.00 174.00 C 487.64 173.80 473.06 177.97 458.00 179.00 Z"/>
</g>
<g fill="#000000" fill-opacity="0.00" stroke="None">
<path d="
M 209.00 138.00 
C 208.89 130.86 205.73 116.80 200.00 112.00
C 182.59 97.41 166.51 119.23 163.33 134.33 C 160.15 149.43 162.10 183.79 182.92 180.92 C 203.75 178.06 206.54 153.17 209.00 138.00 Z"/>
</g>
<g fill="#000000" fill-opacity="0.00" stroke="None">
<path d="
M 683.00 134.00 
C 689.16 133.03 702.75 133.59 707.78 130.78 C 712.80 127.96 724.64 127.48 725.97 122.03 C 727.30 116.58 713.96 113.42 709.68 111.32 C 705.40 109.22 690.31 109.55 685.00 111.00
C 686.44 119.25 682.62 126.06 683.00 134.00 Z"/>
</g>
<g fill="#887DD8" fill-opacity="0.80" stroke="None">
<path d="
M 200.00 112.00 
C 205.73 116.80 208.89 130.86 209.00 138.00
C 210.68 127.61 209.72 115.50 200.00 112.00 Z"/>
</g>
<g fill="#000000" fill-opacity="0.00" stroke="None">
<path d="
M 50.00 117.00 
C 48.02 126.22 50.38 134.17 47.33 143.33 C 44.28 152.49 60.84 153.48 66.70 150.70 C 72.56 147.93 80.13 143.76 82.07 137.08 C 84.00 130.41 77.44 124.97 72.08 120.92 C 66.73 116.87 56.72 114.82 50.00 117.00 Z"/>
</g>
<g fill="#8E7BD7" fill-opacity="0.51" stroke="None">
<path d="
M 241.00 139.00 
C 241.31 134.50 241.36 129.49 241.00 125.00
C 240.93 128.76 240.89 135.15 241.00 139.00 Z"/>
</g>
<g fill="#000000" fill-opacity="0.00" stroke="None">
<path d="
M 594.00 132.00 
C 587.60 141.11 580.63 150.88 578.00 162.00
C 584.05 162.08 590.31 161.53 596.00 163.00
C 594.64 153.50 594.20 142.37 594.00 132.00 Z"/>
</g>
<g fill="#000000" fill-opacity="0.00" stroke="None">
<path d="
M 678.00 164.00 
C 678.56 170.35 673.59 182.82 680.93 186.07 C 688.26 189.33 694.12 182.62 700.92 180.92 C 707.72 179.21 709.92 168.67 702.00 167.00 C 694.09 165.33 686.08 165.09 678.00 164.00 Z"/>
</g>
</svg>